<svg xmlns="http://www.w3.org/2000/svg" xmlns:xlink="http://www.w3.org/1999/xlink" viewBox="0 0 90 90"><defs><style>.cls-1{fill:url(#未命名的渐变_9);}.cls-2{fill:none;}.cls-3{fill:#1aa386;}.cls-4{fill:#39b39b;}.cls-5{fill:#fff;}.cls-6{fill:#e65336;}</style><linearGradient id="未命名的渐变_9" x1="37.31" y1="38.41" x2="141.56" y2="127.77" gradientUnits="userSpaceOnUse"><stop offset="0" stop-color="#ffc624"/><stop offset="1" stop-color="#e89c41"/></linearGradient></defs><title>资源 25</title><g id="图层_2" data-name="图层 2"><g id="图层_2-2" data-name="图层 2"><circle class="cls-1" cx="45" cy="45" r="45"/><path class="cls-2" d="M0,45A45,45,0,1,0,45,0,45,45,0,0,0,0,45"/><path class="cls-3" d="M28.71,72.05l-3,3a2.32,2.32,0,0,0,0,3.26l4.78,4.79a2.32,2.32,0,0,0,3.26,0l3-3Z"/><path class="cls-4" d="M20.26,82.59a45.07,45.07,0,0,0,7.91,4.14l3.14-4-4.88-4.87Z"/><path class="cls-5" d="M62.7,46.2a22.85,22.85,0,1,0,0,32.32,22.84,22.84,0,0,0,0-32.32M33.58,75.28a18.3,18.3,0,1,1,25.88,0,18.31,18.31,0,0,1-25.88,0"/><polygon class="cls-6" points="46.84 47.5 51.47 56.89 61.84 58.4 54.34 65.71 56.11 76.03 46.84 71.16 37.56 76.03 39.34 65.71 31.83 58.4 42.2 56.89 46.84 47.5"/><path class="cls-5" d="M28.33,12.35a45.14,45.14,0,0,1-2.59,5.71V35.6H22.8v-13c-.46.62-1,1.22-1.42,1.74a20.75,20.75,0,0,0-1.66-3.2,28.43,28.43,0,0,0,5.71-9.73Zm6.52,7.84c-.5,6.43-2,11.94-6.8,15.47a8.92,8.92,0,0,0-2.26-2.44c4.31-3,5.58-7.56,6-13h-5V17.28h5.19c0-1.79,0-3.66,0-5.58h3.09c0,1.89,0,3.79-.08,5.58h5.32a26.87,26.87,0,0,0-3.19-3.87l2.16-1.53a29.65,29.65,0,0,1,3.37,3.79l-2.15,1.61H43.8v2.91Zm5.79,12c.62,0,.72-.57.83-4a8.53,8.53,0,0,0,2.7,1.25c-.26,4.31-1,5.58-3.25,5.58H38.48c-2.57,0-3.22-1-3.22-3.87v-9.4h3v9.4c0,.91.11,1,.7,1ZM52.06,30a10.51,10.51,0,0,1,2.49,1.45c1.61,1,3.84,1.09,6.52,1.09A75.54,75.54,0,0,0,70.15,32a13.41,13.41,0,0,0-.83,3.19c-1.92.13-5.79.26-8.31.26-3.08,0-5.11-.31-6.87-1.32-1-.6-1.85-1.38-2.42-1.38-1,0-2.38,1.51-3.79,3.14l-2-2.7a18.9,18.9,0,0,1,3.22-2.33V24.18H46.25V21.33h5.81Zm-2-11.86a21.34,21.34,0,0,0-3.9-4.31l2.34-1.74a23.57,23.57,0,0,1,4.1,4.07Zm10.54,4.75c-.5,3.68-1.74,6.59-6.05,8.38a8.7,8.7,0,0,0-1.87-2.57c3.48-1.25,4.41-3.27,4.78-5.81H53.25V20.21h7.06v-3H57.07a14.48,14.48,0,0,1-1.66,2.52,19.68,19.68,0,0,0-2.54-1.64A13.83,13.83,0,0,0,56,12.14l2.91.65c-.19.6-.39,1.22-.63,1.82h2.05V11.49h3.07v3.12h5.37V17.2H63.38v3h6.43v2.68H65.32v4.54c0,.72.08.8.5.8h1.09c.41,0,.52-.33.59-2.7a6.93,6.93,0,0,0,2.7,1.2c-.31,3.45-1.09,4.33-3,4.33h-2c-2.46,0-3-.91-3-3.63V22.89Z"/></g></g></svg>