<svg xmlns="http://www.w3.org/2000/svg" xmlns:xlink="http://www.w3.org/1999/xlink" viewBox="0 0 90 90"><defs><style>.cls-1{fill:url(#未命名的渐变_7);}.cls-2{fill:#e65336;}.cls-3{fill:#fad198;}.cls-4{fill:#e5b375;}.cls-5{fill:#cb9962;}.cls-6{fill:#fbe0c8;}.cls-7{fill:#fff;}</style><linearGradient id="未命名的渐变_7" y1="45" x2="90" y2="45" gradientUnits="userSpaceOnUse"><stop offset="0" stop-color="#06b3ff"/><stop offset="1" stop-color="#0f89f4"/><stop offset="1" stop-color="#0fa3f4"/></linearGradient></defs><title>资源 24</title><g id="图层_2" data-name="图层 2"><g id="图层_2-2" data-name="图层 2"><path class="cls-1" d="M0,45A45,45,0,1,0,45,0,45,45,0,0,0,0,45"/><path class="cls-2" d="M58.15,41.11a10.59,10.59,0,0,0-9.77,6.54,10.58,10.58,0,0,0-20.35,4c0,5.85,6.46,16.61,20.35,24.47,13.9-7.68,20.35-18.62,20.35-24.47A10.58,10.58,0,0,0,58.15,41.11"/><path class="cls-3" d="M68.38,60.17a2.8,2.8,0,0,0-3-.09,5.77,5.77,0,0,1-.78.51,4.23,4.23,0,0,1-1.23.21,5.13,5.13,0,0,0-3.46,2.57,14.89,14.89,0,0,0-1.5,4.19l-2.93,2.6a11.84,11.84,0,0,0-6.72-2.75c-2.36-.18-4.81.32-7.05-.45-3.38-1.2-5.11-4.9-8-7.08-3.05-2.31-7.17-2.69-11-2.31S15.21,59,11.39,59.22c-2.69.15-5.41-.12-8.07.33,0,.62-.06,1.28-.06,1.91,0,.13,0,.25,0,.37a44.78,44.78,0,0,0,7.46,12.32c.87-.21,1.73-.41,2.6-.53a21.21,21.21,0,0,1,11.62,2,60.86,60.86,0,0,1,10.2,6.22c1.7,1.19,3.52,2.45,5.58,2.51,2.42.09,4.54-1.43,6.76-2.39a65.62,65.62,0,0,1,6.39-2A12.48,12.48,0,0,0,57,78.55a16.79,16.79,0,0,0,2.72-2.48,46.63,46.63,0,0,0,4.48-5.26,44.71,44.71,0,0,0,4.51-9.62,1.94,1.94,0,0,0,.06-.57A.9.9,0,0,0,68.38,60.17Z"/><path class="cls-4" d="M59.86,64c-1.14,2.21-1.74,4.87-3.74,6.36-.21.15-.45.3-.48.57a1.34,1.34,0,0,0,.12.6,2.93,2.93,0,0,1-.83,3,4.88,4.88,0,0,1-3,1.16,13.13,13.13,0,0,1-3.23-.33c-2.09-.38-4.18-.83-6.24-1.34-.48-.12-1-.24-1.47-.39s-1-.39-1.55-.57a9.82,9.82,0,0,0-5-.27,3.16,3.16,0,0,0,1.07.48,69.4,69.4,0,0,0,14,2.81A11.39,11.39,0,0,0,53.19,76a4.15,4.15,0,0,0,2.9-2.06c.57-1.08.48-2.42,1.08-3.47a3.07,3.07,0,0,1,2.66-1.52,2.45,2.45,0,0,1-.33-2.09,8.35,8.35,0,0,1,.9-2,25.5,25.5,0,0,1,1.88-3A3.66,3.66,0,0,0,59.86,64"/><path class="cls-5" d="M53.52,75.41a6.6,6.6,0,0,1-5,.3,1.88,1.88,0,0,0-.89-.15c-.63.12-.9.9-1,1.53-.33-.33-.09-.9-.21-1.35-.15-.62-.9-.86-1.52-.89A5,5,0,0,1,43,74.73a.47.47,0,0,1-.56.51c-.27-.09-.39-.36-.51-.6-.21-.42-.69-.87-1.11-.66a1.1,1.1,0,0,0-.42.6,22,22,0,0,0-.8,2.66,1,1,0,0,1-.24-.93c.06-.78.09-1.55.15-2.3a1,1,0,0,0-.06-.51.86.86,0,0,0-.57-.33,12.36,12.36,0,0,0-3.14-.41c1-.54,2.27-.12,3.35.23a55.41,55.41,0,0,0,10.82,2.54,8.22,8.22,0,0,0,4.57-.32"/><path class="cls-6" d="M54.12,70.45a19.35,19.35,0,0,0-2.3-.12.85.85,0,0,0-.54.12c-.39.21-.39.75-.39,1.17a7.45,7.45,0,0,1-.24,2,1.08,1.08,0,0,0,0,.81c.15.24.48.27.75.3s.81.09,1.23.12a5.26,5.26,0,0,0,1.19,0,7.19,7.19,0,0,0,.39-1.77,12.82,12.82,0,0,0-.12-2.63"/><path class="cls-7" d="M55,70.69a1.21,1.21,0,0,0-.63-.21c-.09,0-.15,0-.24,0a10.81,10.81,0,0,1,.09,2.6,7.19,7.19,0,0,1-.39,1.77,1.35,1.35,0,0,0,.54-.21,1.79,1.79,0,0,0,.72-1,5.71,5.71,0,0,0,.18-1.25c0-.18,0-.39,0-.57a1.4,1.4,0,0,0-.3-1.08"/><path class="cls-4" d="M65.51,60.14c-.48.27-1,.57-1.47.84l.84.27a1.59,1.59,0,0,1,.51.24,1.24,1.24,0,0,1,.09,1.28c-.51,1.77-1,3.53-1.56,5.26a8.15,8.15,0,0,1-.45,1.29,7.56,7.56,0,0,1-.8,1.25,64.65,64.65,0,0,0-3.89,6.22c2.18-2.57,4.42-5.2,5.53-8.4.24-.68.42-1.4.69-2.12a11.94,11.94,0,0,0,1.1-3.88,1.6,1.6,0,0,0-.15-.75c-.09-.21-.24-.39-.32-.6a1.05,1.05,0,0,1,.83-1.37,6.44,6.44,0,0,0-.95.47"/><path class="cls-6" d="M64.46,62.65l-.09.18A5.07,5.07,0,0,0,64.16,65a.37.37,0,0,0,.15.35.28.28,0,0,0,.33-.06,1.11,1.11,0,0,0,.18-.32c.21-.66.42-1.32.57-2a2.28,2.28,0,0,0-.63-.24,1.07,1.07,0,0,1-.3-.06"/><path class="cls-7" d="M64.82,62.3a.68.68,0,0,0-.36.35c.09,0,.21,0,.3.06a2.71,2.71,0,0,1,.63.24,4.56,4.56,0,0,0,.14-.59,1.32,1.32,0,0,0-.71-.06"/><path class="cls-6" d="M67.93,61.34l-.33-.09a3,3,0,0,0-.33,1l-.09.53a1,1,0,0,0,.09.81c.09.09.21.15.3.09s.15-.15.18-.24l.71-1.88c-.18-.06-.35-.15-.53-.21"/><path class="cls-7" d="M68.46,61.58a6.28,6.28,0,0,0,.24-.69.81.81,0,0,0-1,.27l-.09.12.33.09a1.9,1.9,0,0,1,.56.21"/><path class="cls-7" d="M31.29,32.23c0,1.43-.2,2.28-1.06,2.8a7,7,0,0,1-3.61.57,10.23,10.23,0,0,0-.83-3c.94.05,1.9,0,2.21,0s.44-.1.44-.46V27H25.71a27.1,27.1,0,0,1-1.81,8.59,12.77,12.77,0,0,0-2.49-1.43c1.61-3.53,1.71-8.72,1.71-12.51V12.27h8.17Zm-2.85-8.1V21H25.9v.7c0,.78,0,1.59,0,2.44Zm-2.54-9v3h2.54v-3ZM45.47,21.8a23.78,23.78,0,0,1-3.12,8.69,12.66,12.66,0,0,0,3.84,2.73,12.56,12.56,0,0,0-1.92,2.41,16,16,0,0,1-3.68-2.83,14.68,14.68,0,0,1-3.4,2.78,9.81,9.81,0,0,0-1.53-2.08v2.13H32.72V12.3H44.66v5c0,1.35-.28,2.07-1.37,2.49a14,14,0,0,1-4.47.39,10.31,10.31,0,0,0-.91-2.6c1.3.08,2.83.08,3.25.05s.54-.1.54-.41V15.15h-6V21.3h7.5l.46-.1ZM35.66,33.16a12,12,0,0,0,3.16-2.64,26.48,26.48,0,0,1-3-6.44h-.15Zm2.77-9.08a20.62,20.62,0,0,0,2,4.05,18.56,18.56,0,0,0,1.69-4.05ZM70,14.94a17.19,17.19,0,0,1-6.46,5.4,48.05,48.05,0,0,0,8.28,1A12.36,12.36,0,0,0,70.1,24a38.34,38.34,0,0,1-10.43-2A52.39,52.39,0,0,1,49,24.34a10.82,10.82,0,0,0-1.2-2.7,48.6,48.6,0,0,0,8.26-1.35,13.55,13.55,0,0,1-2.73-2.15,23.23,23.23,0,0,1-2.93,1.79,9.58,9.58,0,0,0-1.79-2.39,16.43,16.43,0,0,0,7.4-6.2l3.14.64a20.37,20.37,0,0,1-1.28,1.85h9.71l.44-.13Zm-.31,10.8s-.08.83-.16,1.25c-.57,4.41-1.22,6.49-2.18,7.32a3.94,3.94,0,0,1-2.75,1c-1,0-2.62,0-4.33,0a6,6,0,0,0-1-2.65c1.68.16,3.55.18,4.33.18a1.87,1.87,0,0,0,1.25-.28c.51-.42,1-1.69,1.4-4.13H59.36c-1.77,3.79-4.83,5.89-9.53,7.19A13.37,13.37,0,0,0,48,33c3.79-.78,6.41-2.18,7.92-4.65H49.75V25.74H57.1a21.29,21.29,0,0,0,.41-2.21l3.2.26c-.13.7-.26,1.33-.44,1.95ZM55.36,16.55a11.93,11.93,0,0,0,4.28,2.68A18.83,18.83,0,0,0,65,16.4H55.54Z"/></g></g></svg>