<svg xmlns="http://www.w3.org/2000/svg" viewBox="0 0 64 64"><defs><style>.cls-1{fill:none;opacity:0.19;}.cls-2{fill:#f17167;}.cls-3{fill:#34a7f3;}.cls-4{fill:#ffbd50;}.cls-5{fill:#ff9f23;}</style></defs><title>资源 30</title><g id="图层_2" data-name="图层 2"><g id="图层_2-2" data-name="图层 2"><rect class="cls-1" width="64" height="64"/><path class="cls-2" d="M19.19,29.2h0a10.6,10.6,0,1,1,10.6-10.6,10.6,10.6,0,0,1-10.6,10.6"/><path class="cls-3" d="M47.29,29.2h-5a8.11,8.11,0,0,1-8.12-8.11v-5A8.12,8.12,0,0,1,42.33,8h5a8.12,8.12,0,0,1,8.12,8.12v5a8.11,8.11,0,0,1-8.12,8.11"/><path class="cls-4" d="M23,56H15.4a6.81,6.81,0,0,1-6.81-6.81V41.6a6.8,6.8,0,0,1,6.81-6.8H23a6.8,6.8,0,0,1,6.81,6.8v7.59A6.81,6.81,0,0,1,23,56"/><rect class="cls-5" x="34.21" y="34.8" width="21.2" height="21.2"/></g></g></svg>