<?xml version="1.0" encoding="utf-8"?>
<!-- Generator: Adobe Illustrator 22.1.0, SVG Export Plug-In . SVG Version: 6.00 Build 0)  -->
<svg version="1.1" id="图层_1" xmlns="http://www.w3.org/2000/svg" xmlns:xlink="http://www.w3.org/1999/xlink" x="0px" y="0px"
	 viewBox="0 0 84 84" style="enable-background:new 0 0 84 84;" xml:space="preserve">
<style type="text/css">
	.st0{fill:#009CFD;}
	.st1{clip-path:url(#SVGID_2_);}
	.st2{opacity:0.2;}
	.st3{clip-path:url(#SVGID_4_);}
	.st4{fill:#FFFFFF;}
	.st5{clip-path:url(#SVGID_6_);}
	.st6{fill:#F5F5F5;}
</style>
<title>资源 66</title>
<g>
	<g>
		<path class="st0" d="M12,0h60c6.6,0,12,5.4,12,12v60c0,6.6-5.4,12-12,12H12C5.4,84,0,78.6,0,72V12C0,5.4,5.4,0,12,0z"/>
		<path class="st0" d="M12,0h60c6.6,0,12,5.4,12,12v60c0,6.6-5.4,12-12,12H12C5.4,84,0,78.6,0,72V12C0,5.4,5.4,0,12,0z"/>
		<g>
			<defs>
				<path id="SVGID_1_" d="M12,0h60c6.6,0,12,5.4,12,12v60c0,6.6-5.4,12-12,12H12C5.4,84,0,78.6,0,72V12C0,5.4,5.4,0,12,0z"/>
			</defs>
			<clipPath id="SVGID_2_">
				<use xlink:href="#SVGID_1_"  style="overflow:visible;"/>
			</clipPath>
			<g id="图层_2_1_" class="st1">
				<g id="图层_1-2">
					<g class="st2">
						<defs>
							<rect id="SVGID_3_" x="-0.5" y="26.8" class="st2" width="65" height="57.2"/>
						</defs>
						<clipPath id="SVGID_4_">
							<use xlink:href="#SVGID_3_"  style="overflow:visible;"/>
						</clipPath>
						<g class="st3">
							<path class="st4" d="M64.5,84H12.4C5.3,84-0.5,78.2-0.5,71.1c0,0,0,0,0,0V26.9c0.9,0,1.7,0,2.6,0c1,0,2,0,3.1,0.1
								c29.9,1.5,54.6,23.9,59,53.5C64.3,81.6,64.4,82.8,64.5,84"/>
						</g>
					</g>
					<g>
						<g class="st2">
							<defs>
								<rect id="SVGID_5_" x="3.7" y="-1.6" class="st2" width="81.4" height="81.8"/>
							</defs>
							<clipPath id="SVGID_6_">
								<use xlink:href="#SVGID_5_"  style="overflow:visible;"/>
							</clipPath>
							<g class="st5">
								<path class="st4" d="M84.1,11.1l1,63.7c0,1.2-0.2,2.3-0.6,3.4c-4.9,1.2-9.9,1.9-15,2c-1.6,0-3.3,0-4.9-0.1
									C28.8,78,1.6,47.2,3.8,11.5C4,8,4.5,4.6,5.2,1.1C7.2,0,9.4-0.6,11.6-0.7L71-1.6C78.1-1.7,84,4,84.1,11.1
									C84.1,11.1,84.1,11.1,84.1,11.1"/>
							</g>
						</g>
					</g>
					<path class="st6" d="M42.8,43c-23.9,0-39.3-6.7-39.3-6.7l6.7,23.9c7.7,1.9,15.6,3.3,23.5,4.2V51.8h16.6v12.6
						c7.2-0.9,14.3-2.3,21.3-4.2l8.9-23.8C68.4,40.8,55.6,43,42.8,43 M18.8,59.6l-5.2-1.4l-1.4-5.3l6.6,0.7V59.6z M18.8,49.8
						l-7.4-0.7l-1.6-6l9,1.4L18.8,49.8z M28.8,60.7L22.9,60v-5.3l5.9,0.7V60.7z M29,51.7L23.1,51v-5.3l5.9,0.7V51.7z M53.3,46.1
						l5.9-0.7v5.3l-5.9,0.7L53.3,46.1z M59.4,59.7l-5.9,0.7v-5.3l5.9-0.7L59.4,59.7z M68.7,57.9l-5.2,1.4v-6l6.6-0.7L68.7,57.9z
						 M70.9,48.8l-7.4,0.7v-5.3l9-1.4L70.9,48.8z M36.9,27.4c0.7-0.9,1.6-1.6,2.8-1.8c1.6-0.1,6.8,0.5,8.7,0s5.4-3,5.4-3
						c-2.4-0.1-4.9-0.5-7.2-1.3c-2-1-4.1-1.6-6.3-1.7c-1.2,0-2.3,0.3-3.3,0.8L36.9,27.4z M11.1,29.8c0.5-0.7,1.3-1.3,2.2-1.5
						c1.2-0.1,5.5,0.4,7,0c1.5-0.6,3-1.4,4.4-2.4c-2-0.1-3.9-0.4-5.8-1.1c-1.6-0.8-3.3-1.3-5.1-1.4c-0.9,0-1.9,0.2-2.7,0.7
						L11.1,29.8z M63.2,29.8c0.5-0.8,1.4-1.3,2.3-1.4c1.3-0.1,5.5,0.4,7,0c1.5-0.6,3-1.4,4.3-2.4c-2-0.1-3.9-0.4-5.8-1.1
						c-1.6-0.8-3.3-1.3-5.1-1.4c-0.9,0-1.9,0.2-2.7,0.7C63.2,24.2,63.2,29.8,63.2,29.8z"/>
				</g>
			</g>
		</g>
	</g>
</g>
</svg>
