<svg xmlns="http://www.w3.org/2000/svg" viewBox="0 0 48 48"><defs><style>.cls-1{fill:none;opacity:0.41;}.cls-2{fill:gray;}</style></defs><title>资源 13</title><g id="图层_2" data-name="图层 2"><g id="图层_2-2" data-name="图层 2"><rect class="cls-1" width="48" height="48"/><path class="cls-2" d="M46.6,18.75A5,5,0,0,0,43,15.54L32.72,13.76l-4.63-10A4.53,4.53,0,0,0,24,1.31,5,5,0,0,0,19.72,3.8l-4.62,10-10.33,2A4.34,4.34,0,0,0,1.21,19.1a5.68,5.68,0,0,0,1.25,4.63l7.47,7.12L8,41.35A5.31,5.31,0,0,0,9.76,45.8a4.2,4.2,0,0,0,2.49.89A3.43,3.43,0,0,0,14.38,46L24,41.17l9.44,5a3.61,3.61,0,0,0,2,.53,4.75,4.75,0,0,0,2.67-.89,4.68,4.68,0,0,0,1.78-4.45l-1.78-10.5,7.66-7.47a4.92,4.92,0,0,0,.89-4.63m-3,2.48L35,29.6l2.14,11.92a2.42,2.42,0,0,1-.71,2,1.3,1.3,0,0,1-1.07.36,1.32,1.32,0,0,1-.89-.18L23.81,38.14,13.13,43.66a1.59,1.59,0,0,1-1.77,0,2.11,2.11,0,0,1-.72-1.95L13,30.14,4.42,22a3.23,3.23,0,0,1-.53-2.14,1.66,1.66,0,0,1,1.42-1.42l11.74-2.31L22.39,5A1.72,1.72,0,0,1,24,4a2.16,2.16,0,0,1,1.43.54l5.34,11,11.75,2.13a2.29,2.29,0,0,1,1.42,1.43,2.76,2.76,0,0,1-.36,2.13"/></g></g></svg>