<svg xmlns="http://www.w3.org/2000/svg" xmlns:xlink="http://www.w3.org/1999/xlink" viewBox="0 0 28 28"><defs><style>.cls-1{fill:none;}.cls-2{clip-path:url(#clip-path);}.cls-3{fill:#d81e06;}</style><clipPath id="clip-path"><rect class="cls-1" x="3.15" y="1.37" width="21.69" height="25.26"/></clipPath></defs><title>资源 67</title><g id="图层_2" data-name="图层 2"><g id="图层_1-2" data-name="图层 1"><rect class="cls-1" width="28" height="28"/><g class="cls-2"><path class="cls-3" d="M14.54,16.73c-.93,0-1.39.7-1.39,1.75s.46,1.74,1.39,1.74,1.4-.58,1.4-1.74-.47-1.63-1.4-1.75"/><path class="cls-3" d="M19.5,6c.59,1.39.7,3.45-.46,4.61-1.94-7.6-6.9-9.23-6.9-9.23.58,3.92-2.09,8.18-4.73,11.44a8.67,8.67,0,0,0-1-4.15c-.23,2.87-2.32,5.2-3,8A7.23,7.23,0,0,0,5,23.21c2.75,2.67,9.92,6,17.21.11C28.85,16.5,21.13,7.16,19.5,6M11.21,21.23H9.93V19H7.64v2.21H6.36V15.8H7.64V18h2.41V15.8h1.27v5.43Zm3.33.12a2.63,2.63,0,0,1-2.75-2.75,2.7,2.7,0,0,1,2.75-2.87c1.75.11,2.56,1,2.68,2.87a2.53,2.53,0,0,1-2.68,2.75m6.24-4.5v4.5H19.5v-4.5H17.76V15.8h4.73v1.05Z"/></g></g></g></svg>