<svg xmlns="http://www.w3.org/2000/svg" xmlns:xlink="http://www.w3.org/1999/xlink" viewBox="0 0 64 64"><defs><style>.cls-1,.cls-2{fill:none;}.cls-2{opacity:0.44;}.cls-3{clip-path:url(#clip-path);}.cls-4{fill:#ff4d45;}.cls-5{fill:#ff4c45;}.cls-6{fill:#ff4b45;}.cls-7{fill:#ff4a45;}.cls-8{fill:#ff4945;}.cls-9{fill:#ff4846;}.cls-10{fill:#ff4746;}.cls-11{fill:#ff4646;}.cls-12{fill:#ff4546;}.cls-13{fill:#ff4446;}.cls-14{fill:#ff4347;}.cls-15{fill:#ff4247;}.cls-16{fill:#ff4147;}.cls-17{fill:#ff4047;}.cls-18{fill:#ff3f47;}.cls-19{fill:#ff3e47;}.cls-20{fill:#ff3d48;}.cls-21{fill:#ff3c48;}.cls-22{fill:#ff3b48;}.cls-23{fill:#ff3a48;}.cls-24{fill:#ff3948;}.cls-25{fill:#ff3849;}.cls-26{fill:#ff3749;}.cls-27{fill:#ff3649;}.cls-28{fill:#ff3449;}.cls-29{fill:#ff3349;}.cls-30{fill:#ff324a;}.cls-31{fill:#ff314a;}.cls-32{fill:#ff304a;}.cls-33{fill:#ff2f4a;}.cls-34{fill:#ff2e4a;}.cls-35{fill:#ff2d4b;}.cls-36{fill:#ff2c4b;}.cls-37{fill:#ff2b4b;}.cls-38{fill:#ff2a4b;}.cls-39{fill:#ff294b;}.cls-40{fill:#ff284b;}.cls-41{fill:#ff274c;}.cls-42{fill:#ff264c;}.cls-43{fill:#ff254c;}.cls-44{fill:#ff244c;}.cls-45{fill:#ff234c;}.cls-46{fill:#ff224d;}.cls-47{fill:#ff214d;}.cls-48{fill:#ff204d;}.cls-49{fill:#ff1f4d;}.cls-50{fill:#ff1e4d;}.cls-51{fill:#ff6b3f;}.cls-52{fill:#ff6a3f;}.cls-53{fill:#ff693f;}.cls-54{fill:#ff6840;}.cls-55{fill:#ff6740;}.cls-56{fill:#ff6640;}.cls-57{fill:#ff6540;}.cls-58{fill:#ff6440;}.cls-59{fill:#ff6341;}.cls-60{fill:#ff6241;}.cls-61{fill:#ff6141;}.cls-62{fill:#ff6041;}.cls-63{fill:#ff5f41;}.cls-64{fill:#ff5e41;}.cls-65{fill:#ff5d42;}.cls-66{fill:#ff5c42;}.cls-67{fill:#ff5b42;}.cls-68{fill:#ff5a42;}.cls-69{fill:#ff5942;}.cls-70{fill:#ff5843;}.cls-71{fill:#ff5743;}.cls-72{fill:#ff5643;}.cls-73{fill:#ff5543;}.cls-74{fill:#ff5443;}.cls-75{fill:#ff5344;}.cls-76{fill:#ff5244;}.cls-77{fill:#ff5144;}.cls-78{fill:#ff5044;}.cls-79{fill:#ff4f44;}.cls-80{fill:#ff4e44;}.cls-81{fill:#ff1d4e;}.cls-82{fill:#ff1c4e;}.cls-83{fill:#ff1b4e;}.cls-84{fill:#ff1a4e;}.cls-85{fill:#ff194e;}.cls-86{fill:#ff184e;}.cls-87{fill:#ff174f;}.cls-88{fill:#ff164f;}.cls-89{fill:#ff154f;}.cls-90{fill:#ff144f;}.cls-91{fill:#ff134f;}.cls-92{fill:#ff1250;}.cls-93{fill:#ff1150;}.cls-94{fill:#ff1050;}.cls-95{fill:#ff0f50;}.cls-96{fill:#ff0e50;}.cls-97{fill:#ff0d51;}.cls-98{fill:#ff0c51;}.cls-99{fill:#ff0b51;}.cls-100{fill:#ff0a51;}.cls-101{fill:#ff0951;}.cls-102{fill:#ff0851;}.cls-103{fill:#ff0752;}.cls-104{fill:#ff0652;}.cls-105{fill:#ff0552;}.cls-106{fill:#ff0452;}.cls-107{fill:#ff0352;}.cls-108{fill:#ff0253;}.cls-109{fill:#ff0153;}.cls-110{fill:#ff0053;}</style><clipPath id="clip-path"><path class="cls-1" d="M30,28.93A2.05,2.05,0,1,1,32,31,2.05,2.05,0,0,1,30,28.93m-5.11,0c0,4,7.16,12.28,7.16,12.28s7.17-8.32,7.17-12.28a7.17,7.17,0,1,0-14.33,0m-2.05,0a9.21,9.21,0,1,1,18.42,0C41.21,34,32,44.29,32,44.29S22.79,34,22.79,28.93M10.5,32A21.5,21.5,0,1,0,32,10.5,21.51,21.51,0,0,0,10.5,32"/></clipPath></defs><title>资源 45</title><g id="图层_2" data-name="图层 2"><g id="图层_1-2" data-name="图层 1"><rect class="cls-2" width="64" height="64"/><g class="cls-3"><rect class="cls-4" x="22.79" y="19.72" width="0.17" height="24.57"/><rect class="cls-5" x="22.96" y="19.72" width="0.4" height="24.57"/><rect class="cls-6" x="23.36" y="19.72" width="0.4" height="24.57"/><rect class="cls-7" x="23.76" y="19.72" width="0.4" height="24.57"/><rect class="cls-8" x="24.16" y="19.72" width="0.4" height="24.57"/><rect class="cls-9" x="24.57" y="19.72" width="0.4" height="24.57"/><rect class="cls-10" x="24.97" y="19.72" width="0.4" height="24.57"/><rect class="cls-11" x="25.37" y="19.72" width="0.4" height="24.57"/><rect class="cls-12" x="25.77" y="19.72" width="0.4" height="24.57"/><rect class="cls-13" x="26.17" y="19.72" width="0.4" height="24.57"/><rect class="cls-14" x="26.58" y="19.72" width="0.4" height="24.57"/><rect class="cls-15" x="26.98" y="19.72" width="0.4" height="24.57"/><rect class="cls-16" x="27.38" y="19.72" width="0.4" height="24.57"/><rect class="cls-17" x="27.78" y="19.72" width="0.4" height="24.57"/><rect class="cls-18" x="28.18" y="19.72" width="0.4" height="24.57"/><rect class="cls-19" x="28.59" y="19.72" width="0.4" height="24.57"/><rect class="cls-20" x="28.99" y="19.72" width="0.4" height="24.57"/><rect class="cls-21" x="29.39" y="19.72" width="0.4" height="24.57"/><rect class="cls-22" x="29.79" y="19.72" width="0.4" height="24.57"/><rect class="cls-23" x="30.19" y="19.72" width="0.4" height="24.57"/><rect class="cls-24" x="30.59" y="19.72" width="0.4" height="24.57"/><rect class="cls-25" x="31" y="19.72" width="0.4" height="24.57"/><rect class="cls-26" x="31.4" y="19.72" width="0.4" height="24.57"/><rect class="cls-27" x="31.8" y="19.72" width="0.4" height="24.57"/><rect class="cls-28" x="32.2" y="19.72" width="0.4" height="24.57"/><rect class="cls-29" x="32.6" y="19.72" width="0.4" height="24.57"/><rect class="cls-30" x="33.01" y="19.72" width="0.4" height="24.57"/><rect class="cls-31" x="33.41" y="19.72" width="0.4" height="24.57"/><rect class="cls-32" x="33.81" y="19.72" width="0.4" height="24.57"/><rect class="cls-33" x="34.21" y="19.72" width="0.4" height="24.57"/><rect class="cls-34" x="34.61" y="19.72" width="0.4" height="24.57"/><rect class="cls-35" x="35.02" y="19.72" width="0.4" height="24.57"/><rect class="cls-36" x="35.42" y="19.72" width="0.4" height="24.57"/><rect class="cls-37" x="35.82" y="19.72" width="0.4" height="24.57"/><rect class="cls-38" x="36.22" y="19.72" width="0.4" height="24.57"/><rect class="cls-39" x="36.62" y="19.72" width="0.4" height="24.57"/><rect class="cls-40" x="37.02" y="19.72" width="0.4" height="24.57"/><rect class="cls-41" x="37.43" y="19.72" width="0.4" height="24.57"/><rect class="cls-42" x="37.83" y="19.72" width="0.4" height="24.57"/><rect class="cls-43" x="38.23" y="19.72" width="0.4" height="24.57"/><rect class="cls-44" x="38.63" y="19.72" width="0.4" height="24.57"/><rect class="cls-45" x="39.03" y="19.72" width="0.4" height="24.57"/><rect class="cls-46" x="39.44" y="19.72" width="0.4" height="24.57"/><rect class="cls-47" x="39.84" y="19.72" width="0.4" height="24.57"/><rect class="cls-48" x="40.24" y="19.72" width="0.4" height="24.57"/><rect class="cls-49" x="40.64" y="19.72" width="0.4" height="24.57"/><rect class="cls-50" x="41.04" y="19.71" width="0.17" height="24.57"/><path class="cls-51" d="M10.5,10.5v0Z"/><rect class="cls-51" x="10.5" y="10.5" width="0.4" height="43"/><rect class="cls-52" x="10.9" y="10.5" width="0.4" height="43"/><rect class="cls-53" x="11.31" y="10.5" width="0.4" height="43"/><rect class="cls-54" x="11.71" y="10.5" width="0.4" height="43"/><rect class="cls-55" x="12.11" y="10.5" width="0.4" height="43"/><rect class="cls-56" x="12.51" y="10.5" width="0.4" height="43"/><rect class="cls-57" x="12.91" y="10.5" width="0.4" height="43"/><rect class="cls-58" x="13.31" y="10.5" width="0.4" height="43"/><rect class="cls-59" x="13.72" y="10.5" width="0.4" height="43"/><rect class="cls-60" x="14.12" y="10.5" width="0.4" height="43"/><rect class="cls-61" x="14.52" y="10.5" width="0.4" height="43"/><rect class="cls-62" x="14.92" y="10.5" width="0.4" height="43"/><rect class="cls-63" x="15.32" y="10.5" width="0.4" height="43"/><rect class="cls-64" x="15.73" y="10.5" width="0.4" height="43"/><rect class="cls-65" x="16.13" y="10.5" width="0.4" height="43"/><rect class="cls-66" x="16.53" y="10.5" width="0.4" height="43"/><rect class="cls-67" x="16.93" y="10.5" width="0.4" height="43"/><rect class="cls-68" x="17.33" y="10.5" width="0.4" height="43"/><rect class="cls-69" x="17.73" y="10.5" width="0.4" height="43"/><rect class="cls-70" x="18.14" y="10.5" width="0.4" height="43"/><rect class="cls-71" x="18.54" y="10.5" width="0.4" height="43"/><rect class="cls-72" x="18.94" y="10.5" width="0.4" height="43"/><rect class="cls-73" x="19.34" y="10.5" width="0.4" height="43"/><rect class="cls-74" x="19.74" y="10.5" width="0.4" height="43"/><rect class="cls-75" x="20.15" y="10.5" width="0.4" height="43"/><rect class="cls-76" x="20.55" y="10.5" width="0.4" height="43"/><rect class="cls-77" x="20.95" y="10.5" width="0.4" height="43"/><rect class="cls-78" x="21.35" y="10.5" width="0.4" height="43"/><rect class="cls-79" x="21.75" y="10.5" width="0.4" height="43"/><rect class="cls-80" x="22.15" y="10.5" width="0.4" height="43"/><rect class="cls-4" x="22.56" y="10.5" width="0.4" height="43"/><rect class="cls-5" x="22.96" y="10.5" width="0.4" height="43"/><rect class="cls-6" x="23.36" y="10.5" width="0.4" height="43"/><rect class="cls-7" x="23.76" y="10.5" width="0.4" height="43"/><rect class="cls-8" x="24.16" y="10.5" width="0.4" height="43"/><rect class="cls-9" x="24.57" y="10.5" width="0.4" height="43"/><rect class="cls-10" x="24.97" y="10.5" width="0.4" height="43"/><rect class="cls-11" x="25.37" y="10.5" width="0.4" height="43"/><rect class="cls-12" x="25.77" y="10.5" width="0.4" height="43"/><rect class="cls-13" x="26.17" y="10.5" width="0.4" height="43"/><rect class="cls-14" x="26.58" y="10.5" width="0.4" height="43"/><rect class="cls-15" x="26.98" y="10.5" width="0.4" height="43"/><rect class="cls-16" x="27.38" y="10.5" width="0.4" height="43"/><rect class="cls-17" x="27.78" y="10.5" width="0.4" height="43"/><rect class="cls-18" x="28.18" y="10.5" width="0.4" height="43"/><rect class="cls-19" x="28.59" y="10.5" width="0.4" height="43"/><rect class="cls-20" x="28.99" y="10.5" width="0.4" height="43"/><rect class="cls-21" x="29.39" y="10.5" width="0.4" height="43"/><rect class="cls-22" x="29.79" y="10.5" width="0.4" height="43"/><rect class="cls-23" x="30.19" y="10.5" width="0.4" height="43"/><rect class="cls-24" x="30.59" y="10.5" width="0.4" height="43"/><rect class="cls-25" x="31" y="10.5" width="0.4" height="43"/><rect class="cls-26" x="31.4" y="10.5" width="0.4" height="43"/><rect class="cls-27" x="31.8" y="10.5" width="0.4" height="43"/><rect class="cls-28" x="32.2" y="10.5" width="0.4" height="43"/><rect class="cls-29" x="32.6" y="10.5" width="0.4" height="43"/><rect class="cls-30" x="33.01" y="10.5" width="0.4" height="43"/><rect class="cls-31" x="33.41" y="10.5" width="0.4" height="43"/><rect class="cls-32" x="33.81" y="10.5" width="0.4" height="43"/><rect class="cls-33" x="34.21" y="10.5" width="0.4" height="43"/><rect class="cls-34" x="34.61" y="10.5" width="0.4" height="43"/><rect class="cls-35" x="35.02" y="10.5" width="0.4" height="43"/><rect class="cls-36" x="35.42" y="10.5" width="0.4" height="43"/><rect class="cls-37" x="35.82" y="10.5" width="0.4" height="43"/><rect class="cls-38" x="36.22" y="10.5" width="0.4" height="43"/><rect class="cls-39" x="36.62" y="10.5" width="0.4" height="43"/><rect class="cls-40" x="37.02" y="10.5" width="0.4" height="43"/><rect class="cls-41" x="37.43" y="10.5" width="0.4" height="43"/><rect class="cls-42" x="37.83" y="10.5" width="0.4" height="43"/><rect class="cls-43" x="38.23" y="10.5" width="0.4" height="43"/><rect class="cls-44" x="38.63" y="10.5" width="0.4" height="43"/><rect class="cls-45" x="39.03" y="10.5" width="0.4" height="43"/><rect class="cls-46" x="39.44" y="10.5" width="0.4" height="43"/><rect class="cls-47" x="39.84" y="10.5" width="0.4" height="43"/><rect class="cls-48" x="40.24" y="10.5" width="0.4" height="43"/><rect class="cls-49" x="40.64" y="10.5" width="0.4" height="43"/><rect class="cls-50" x="41.04" y="10.5" width="0.4" height="43"/><rect class="cls-81" x="41.44" y="10.5" width="0.4" height="43"/><rect class="cls-82" x="41.85" y="10.5" width="0.4" height="43"/><rect class="cls-83" x="42.25" y="10.5" width="0.4" height="43"/><rect class="cls-84" x="42.65" y="10.5" width="0.4" height="43"/><rect class="cls-85" x="43.05" y="10.5" width="0.4" height="43"/><rect class="cls-86" x="43.45" y="10.5" width="0.4" height="43"/><rect class="cls-87" x="43.86" y="10.5" width="0.4" height="43"/><rect class="cls-88" x="44.26" y="10.5" width="0.4" height="43"/><rect class="cls-89" x="44.66" y="10.5" width="0.4" height="43"/><rect class="cls-90" x="45.06" y="10.5" width="0.4" height="43"/><rect class="cls-91" x="45.46" y="10.5" width="0.4" height="43"/><rect class="cls-92" x="45.87" y="10.5" width="0.4" height="43"/><rect class="cls-93" x="46.27" y="10.5" width="0.4" height="43"/><rect class="cls-94" x="46.67" y="10.5" width="0.4" height="43"/><rect class="cls-95" x="47.07" y="10.5" width="0.4" height="43"/><rect class="cls-96" x="47.47" y="10.5" width="0.4" height="43"/><rect class="cls-97" x="47.87" y="10.5" width="0.4" height="43"/><rect class="cls-98" x="48.28" y="10.5" width="0.4" height="43"/><rect class="cls-99" x="48.68" y="10.5" width="0.4" height="43"/><rect class="cls-100" x="49.08" y="10.5" width="0.4" height="43"/><rect class="cls-101" x="49.48" y="10.5" width="0.4" height="43"/><rect class="cls-102" x="49.88" y="10.5" width="0.4" height="43"/><rect class="cls-103" x="50.29" y="10.5" width="0.4" height="43"/><rect class="cls-104" x="50.69" y="10.5" width="0.4" height="43"/><rect class="cls-105" x="51.09" y="10.5" width="0.4" height="43"/><rect class="cls-106" x="51.49" y="10.5" width="0.4" height="43"/><rect class="cls-107" x="51.89" y="10.5" width="0.4" height="43"/><rect class="cls-108" x="52.3" y="10.5" width="0.4" height="43"/><rect class="cls-109" x="52.7" y="10.5" width="0.4" height="43"/><rect class="cls-110" x="53.1" y="10.5" width="0.4" height="43"/><path class="cls-110" d="M53.5,53.5v0Z"/><rect class="cls-22" x="29.95" y="26.88" width="0.24" height="4.1"/><rect class="cls-23" x="30.19" y="26.88" width="0.4" height="4.1"/><rect class="cls-24" x="30.59" y="26.88" width="0.4" height="4.1"/><rect class="cls-25" x="31" y="26.88" width="0.4" height="4.1"/><rect class="cls-26" x="31.4" y="26.88" width="0.4" height="4.1"/><rect class="cls-27" x="31.8" y="26.88" width="0.4" height="4.1"/><rect class="cls-28" x="32.2" y="26.88" width="0.4" height="4.1"/><rect class="cls-29" x="32.6" y="26.88" width="0.4" height="4.1"/><rect class="cls-30" x="33.01" y="26.88" width="0.4" height="4.1"/><rect class="cls-31" x="33.41" y="26.88" width="0.4" height="4.1"/><rect class="cls-32" x="33.81" y="26.88" width="0.24" height="4.1"/><rect class="cls-9" x="24.84" y="21.76" width="0.13" height="19.45"/><rect class="cls-10" x="24.97" y="21.76" width="0.4" height="19.45"/><rect class="cls-11" x="25.37" y="21.76" width="0.4" height="19.45"/><rect class="cls-12" x="25.77" y="21.76" width="0.4" height="19.45"/><rect class="cls-13" x="26.17" y="21.76" width="0.4" height="19.45"/><rect class="cls-14" x="26.58" y="21.76" width="0.4" height="19.45"/><rect class="cls-15" x="26.98" y="21.76" width="0.4" height="19.45"/><rect class="cls-16" x="27.38" y="21.76" width="0.4" height="19.45"/><rect class="cls-17" x="27.78" y="21.76" width="0.4" height="19.45"/><rect class="cls-18" x="28.18" y="21.76" width="0.4" height="19.45"/><rect class="cls-19" x="28.59" y="21.76" width="0.4" height="19.45"/><rect class="cls-20" x="28.99" y="21.76" width="0.4" height="19.45"/><rect class="cls-21" x="29.39" y="21.76" width="0.4" height="19.45"/><rect class="cls-22" x="29.79" y="21.76" width="0.4" height="19.45"/><rect class="cls-23" x="30.19" y="21.76" width="0.4" height="19.45"/><rect class="cls-24" x="30.59" y="21.76" width="0.4" height="19.45"/><rect class="cls-25" x="31" y="21.76" width="0.4" height="19.45"/><rect class="cls-26" x="31.4" y="21.76" width="0.4" height="19.45"/><rect class="cls-27" x="31.8" y="21.76" width="0.4" height="19.45"/><rect class="cls-28" x="32.2" y="21.76" width="0.4" height="19.45"/><rect class="cls-29" x="32.6" y="21.76" width="0.4" height="19.45"/><rect class="cls-30" x="33.01" y="21.76" width="0.4" height="19.45"/><rect class="cls-31" x="33.41" y="21.76" width="0.4" height="19.45"/><rect class="cls-32" x="33.81" y="21.76" width="0.4" height="19.45"/><rect class="cls-33" x="34.21" y="21.76" width="0.4" height="19.45"/><rect class="cls-34" x="34.61" y="21.76" width="0.4" height="19.45"/><rect class="cls-35" x="35.02" y="21.76" width="0.4" height="19.45"/><rect class="cls-36" x="35.42" y="21.76" width="0.4" height="19.45"/><rect class="cls-37" x="35.82" y="21.76" width="0.4" height="19.45"/><rect class="cls-38" x="36.22" y="21.76" width="0.4" height="19.45"/><rect class="cls-39" x="36.62" y="21.76" width="0.4" height="19.45"/><rect class="cls-40" x="37.02" y="21.76" width="0.4" height="19.45"/><rect class="cls-41" x="37.43" y="21.76" width="0.4" height="19.45"/><rect class="cls-42" x="37.83" y="21.76" width="0.4" height="19.45"/><rect class="cls-43" x="38.23" y="21.76" width="0.4" height="19.45"/><rect class="cls-44" x="38.63" y="21.76" width="0.4" height="19.45"/><rect class="cls-45" x="39.03" y="21.76" width="0.13" height="19.45"/></g></g></g></svg>