<svg xmlns="http://www.w3.org/2000/svg" xmlns:xlink="http://www.w3.org/1999/xlink" viewBox="0 0 64 64"><defs><style>.cls-1,.cls-2{fill:none;}.cls-2{opacity:0.44;}.cls-3{clip-path:url(#clip-path);}.cls-4{fill:#ff174f;}.cls-5{fill:#ff164f;}.cls-6{fill:#ff154f;}.cls-7{fill:#ff144f;}.cls-8{fill:#ff134f;}.cls-9{fill:#ff1250;}.cls-10{fill:#ff1150;}.cls-11{fill:#ff1050;}.cls-12{fill:#ff0f50;}.cls-13{fill:#ff0e50;}.cls-14{fill:#ff0d51;}.cls-15{fill:#ff0c51;}.cls-16{fill:#ff0b51;}.cls-17{fill:#ff0a51;}.cls-18{fill:#ff0951;}.cls-19{fill:#ff0851;}.cls-20{fill:#ff0752;}.cls-21{fill:#ff0652;}.cls-22{fill:#ff0552;}.cls-23{fill:#ff0452;}.cls-24{fill:#ff0352;}.cls-25{fill:#ff0253;}.cls-26{fill:#ff0153;}.cls-27{fill:#ff0053;}.cls-28{fill:#ff6b3f;}.cls-29{fill:#ff6a3f;}.cls-30{fill:#ff693f;}.cls-31{fill:#ff6840;}.cls-32{fill:#ff6740;}.cls-33{fill:#ff6640;}.cls-34{fill:#ff6540;}.cls-35{fill:#ff6440;}.cls-36{fill:#ff6341;}.cls-37{fill:#ff6241;}.cls-38{fill:#ff6141;}.cls-39{fill:#ff6041;}.cls-40{fill:#ff5f41;}.cls-41{fill:#ff5e41;}.cls-42{fill:#ff5d42;}.cls-43{fill:#ff5c42;}.cls-44{fill:#ff5b42;}.cls-45{fill:#ff5a42;}.cls-46{fill:#ff5942;}.cls-47{fill:#ff5843;}.cls-48{fill:#ff5743;}.cls-49{fill:#ff5643;}.cls-50{fill:#ff5543;}.cls-51{fill:#ff5443;}.cls-52{clip-path:url(#clip-path-2);}.cls-53{fill:#ff2f4a;}.cls-54{fill:#ff2e4a;}.cls-55{fill:#ff2d4b;}.cls-56{fill:#ff2c4b;}.cls-57{fill:#ff2b4b;}.cls-58{fill:#ff2a4b;}.cls-59{fill:#ff294b;}.cls-60{fill:#ff284b;}.cls-61{fill:#ff274c;}.cls-62{fill:#ff264c;}.cls-63{fill:#ff254c;}.cls-64{fill:#ff244c;}.cls-65{fill:#ff234c;}.cls-66{fill:#ff224d;}.cls-67{fill:#ff214d;}.cls-68{fill:#ff204d;}.cls-69{fill:#ff1f4d;}.cls-70{fill:#ff1e4d;}.cls-71{fill:#ff1d4e;}.cls-72{fill:#ff1c4e;}.cls-73{fill:#ff1b4e;}.cls-74{fill:#ff1a4e;}.cls-75{fill:#ff194e;}.cls-76{fill:#ff184e;}.cls-77{fill:#ff5344;}.cls-78{fill:#ff5244;}.cls-79{fill:#ff5144;}.cls-80{fill:#ff5044;}.cls-81{fill:#ff4f44;}.cls-82{fill:#ff4e44;}.cls-83{fill:#ff4d45;}.cls-84{fill:#ff4c45;}.cls-85{fill:#ff4b45;}.cls-86{fill:#ff4a45;}.cls-87{fill:#ff4945;}.cls-88{fill:#ff4846;}.cls-89{fill:#ff4746;}.cls-90{fill:#ff4646;}.cls-91{fill:#ff4546;}.cls-92{fill:#ff4446;}.cls-93{fill:#ff4347;}.cls-94{fill:#ff4247;}.cls-95{fill:#ff4147;}.cls-96{fill:#ff4047;}.cls-97{fill:#ff3f47;}.cls-98{fill:#ff3e47;}.cls-99{fill:#ff3d48;}.cls-100{fill:#ff3c48;}.cls-101{fill:#ff3b48;}.cls-102{fill:#ff3a48;}.cls-103{fill:#ff3948;}.cls-104{fill:#ff3849;}.cls-105{fill:#ff3749;}.cls-106{fill:#ff3649;}.cls-107{fill:#ff3449;}.cls-108{fill:#ff3349;}.cls-109{fill:#ff324a;}.cls-110{fill:#ff314a;}.cls-111{fill:#ff304a;}</style><clipPath id="clip-path"><path class="cls-1" d="M23.58,7.91a2,2,0,0,0-.73,1.53v8.42a1.93,1.93,0,0,0,.74,1.51,2,2,0,0,0,1.65.35,2,2,0,0,0,1.44-1.95V10.11c0-1.53-.57-2.34-1.44-2.55a1.84,1.84,0,0,0-.47-.06,2,2,0,0,0-1.19.41m13.78,0a1.91,1.91,0,0,0-.73,1.53v8.42a1.9,1.9,0,0,0,.74,1.51,1.93,1.93,0,0,0,1.64.35,2,2,0,0,0,1.44-1.95V10.11c0-1.53-.56-2.34-1.44-2.55a1.82,1.82,0,0,0-.46-.06,1.91,1.91,0,0,0-1.19.41"/></clipPath><clipPath id="clip-path-2"><path class="cls-1" d="M39.27,51.4a.13.13,0,0,0-.09.07l-1.62,4.87a.1.1,0,0,0,0,.12.11.11,0,0,0,.12,0l4.86-1.62a.11.11,0,0,0,.08-.08.11.11,0,0,0,0-.11l-3.24-3.24a.12.12,0,0,0-.08,0h0m12.92-13L40.49,50.11a.43.43,0,0,0,0,.69l2.75,2.76a.43.43,0,0,0,.69,0L55.64,41.85a.44.44,0,0,0,0-.7L52.89,38.4a.48.48,0,0,0-.35-.17.5.5,0,0,0-.35.17m3-3.06-1.44,1.44a.32.32,0,0,0,0,.51l3,3a.31.31,0,0,0,.5,0l1.45-1.45a.31.31,0,0,0,0-.5l-3-3a.34.34,0,0,0-.25-.13.36.36,0,0,0-.26.13M33.5,45a2,2,0,0,1,2,1.75,1.93,1.93,0,0,1-.5,1.45,1.89,1.89,0,0,1-1.41.63H22.29a2,2,0,0,1-2-1.75A1.9,1.9,0,0,1,22.16,45ZM20.25,38.69a1.93,1.93,0,0,1,.49-1.47,2,2,0,0,1,1.42-.62h19a2,2,0,0,1,2,1.75,1.89,1.89,0,0,1-.5,1.46,1.92,1.92,0,0,1-1.4.62H22.23a2,2,0,0,1-2-1.74m20.9-10.5a2,2,0,0,1,2,1.74A1.92,1.92,0,0,1,41.29,32h-19a2,2,0,0,1-2-1.74,1.89,1.89,0,0,1,.49-1.46,1.92,1.92,0,0,1,1.42-.62ZM42,11.35v6.13a3.43,3.43,0,0,1-3.32,3.43h-.39a3.44,3.44,0,0,1-3.18-3.43V11.35H28.21v6.13a3.43,3.43,0,0,1-3.32,3.43H24.5a3.44,3.44,0,0,1-3.18-3.43V11.35H13.67a3.06,3.06,0,0,0-3.06,3.06v39a3.06,3.06,0,0,0,3.06,3.06H27.44A2.1,2.1,0,0,0,29,55.89L51.16,33.66a2.63,2.63,0,0,0,.77-1.85V14.41a3.06,3.06,0,0,0-3.06-3.06Z"/></clipPath></defs><title>资源 42</title><g id="图层_2" data-name="图层 2"><g id="图层_1-2" data-name="图层 1"><rect class="cls-2" width="64" height="64"/><g class="cls-3"><rect class="cls-4" x="36.62" y="7.41" width="0.05" height="12.45"/><rect class="cls-5" x="36.67" y="7.41" width="0.16" height="12.45"/><rect class="cls-6" x="36.83" y="7.41" width="0.16" height="12.45"/><rect class="cls-7" x="37" y="7.41" width="0.16" height="12.45"/><rect class="cls-8" x="37.16" y="7.41" width="0.16" height="12.45"/><rect class="cls-9" x="37.33" y="7.41" width="0.16" height="12.45"/><rect class="cls-10" x="37.49" y="7.41" width="0.16" height="12.45"/><rect class="cls-11" x="37.66" y="7.41" width="0.16" height="12.45"/><rect class="cls-12" x="37.82" y="7.41" width="0.16" height="12.45"/><rect class="cls-13" x="37.98" y="7.41" width="0.16" height="12.45"/><rect class="cls-14" x="38.15" y="7.41" width="0.16" height="12.45"/><rect class="cls-15" x="38.31" y="7.41" width="0.16" height="12.45"/><rect class="cls-16" x="38.48" y="7.41" width="0.16" height="12.45"/><rect class="cls-17" x="38.64" y="7.41" width="0.16" height="12.45"/><rect class="cls-18" x="38.81" y="7.41" width="0.16" height="12.45"/><rect class="cls-19" x="38.97" y="7.41" width="0.16" height="12.45"/><rect class="cls-20" x="39.14" y="7.41" width="0.16" height="12.45"/><rect class="cls-21" x="39.3" y="7.41" width="0.16" height="12.45"/><rect class="cls-22" x="39.47" y="7.41" width="0.16" height="12.45"/><rect class="cls-23" x="39.63" y="7.41" width="0.16" height="12.45"/><rect class="cls-24" x="39.79" y="7.41" width="0.16" height="12.45"/><rect class="cls-25" x="39.96" y="7.41" width="0.16" height="12.45"/><rect class="cls-26" x="40.12" y="7.41" width="0.16" height="12.45"/><rect class="cls-27" x="40.29" y="7.41" width="0.16" height="12.45"/><rect class="cls-27" x="40.45" y="7.41" width="0.02" height="12.45"/><rect class="cls-28" x="22.85" y="7.41" width="0.01" height="12.45"/><rect class="cls-28" x="22.85" y="7.41" width="0.16" height="12.45"/><rect class="cls-29" x="23.02" y="7.41" width="0.17" height="12.45"/><rect class="cls-30" x="23.18" y="7.41" width="0.16" height="12.45"/><rect class="cls-31" x="23.35" y="7.41" width="0.17" height="12.45"/><rect class="cls-32" x="23.51" y="7.41" width="0.16" height="12.45"/><rect class="cls-33" x="23.67" y="7.41" width="0.16" height="12.45"/><rect class="cls-34" x="23.84" y="7.41" width="0.17" height="12.45"/><rect class="cls-35" x="24" y="7.41" width="0.16" height="12.45"/><rect class="cls-36" x="24.17" y="7.41" width="0.17" height="12.45"/><rect class="cls-37" x="24.33" y="7.41" width="0.16" height="12.45"/><rect class="cls-38" x="24.5" y="7.41" width="0.17" height="12.45"/><rect class="cls-39" x="24.66" y="7.41" width="0.16" height="12.45"/><rect class="cls-40" x="24.83" y="7.41" width="0.17" height="12.45"/><rect class="cls-41" x="24.99" y="7.41" width="0.16" height="12.45"/><rect class="cls-42" x="25.15" y="7.41" width="0.16" height="12.45"/><rect class="cls-43" x="25.32" y="7.41" width="0.17" height="12.45"/><rect class="cls-44" x="25.48" y="7.41" width="0.16" height="12.45"/><rect class="cls-45" x="25.65" y="7.41" width="0.17" height="12.45"/><rect class="cls-46" x="25.81" y="7.41" width="0.16" height="12.45"/><rect class="cls-47" x="25.98" y="7.41" width="0.17" height="12.45"/><rect class="cls-48" x="26.14" y="7.41" width="0.16" height="12.45"/><rect class="cls-49" x="26.31" y="7.41" width="0.16" height="12.45"/><rect class="cls-50" x="26.47" y="7.41" width="0.17" height="12.45"/><rect class="cls-51" x="26.64" y="7.41" width="0.06" height="12.45"/></g><g class="cls-52"><rect class="cls-53" x="37.54" y="51.39" width="0.11" height="5.11"/><rect class="cls-54" x="37.65" y="51.39" width="0.45" height="5.11"/><rect class="cls-55" x="38.1" y="51.39" width="0.45" height="5.11"/><rect class="cls-56" x="38.55" y="51.39" width="0.45" height="5.11"/><rect class="cls-57" x="39" y="51.39" width="0.45" height="5.11"/><rect class="cls-58" x="39.46" y="51.39" width="0.45" height="5.11"/><rect class="cls-59" x="39.91" y="51.39" width="0.45" height="5.11"/><rect class="cls-60" x="40.36" y="51.39" width="0.45" height="5.11"/><rect class="cls-61" x="40.81" y="51.39" width="0.45" height="5.11"/><rect class="cls-62" x="41.26" y="51.39" width="0.45" height="5.11"/><rect class="cls-63" x="41.71" y="51.39" width="0.45" height="5.11"/><rect class="cls-64" x="42.16" y="51.39" width="0.45" height="5.11"/><rect class="cls-65" x="42.61" y="51.39" width="0.05" height="5.11"/><rect class="cls-16" x="53.58" y="35.17" width="0.3" height="5.3"/><rect class="cls-17" x="53.88" y="35.17" width="0.45" height="5.3"/><rect class="cls-18" x="54.33" y="35.17" width="0.45" height="5.3"/><rect class="cls-19" x="54.78" y="35.17" width="0.45" height="5.3"/><rect class="cls-20" x="55.23" y="35.17" width="0.45" height="5.3"/><rect class="cls-21" x="55.68" y="35.17" width="0.45" height="5.3"/><rect class="cls-22" x="56.13" y="35.17" width="0.45" height="5.3"/><rect class="cls-23" x="56.58" y="35.17" width="0.45" height="5.3"/><rect class="cls-24" x="57.03" y="35.17" width="0.45" height="5.3"/><rect class="cls-25" x="57.48" y="35.17" width="0.45" height="5.3"/><rect class="cls-26" x="57.94" y="35.17" width="0.45" height="5.3"/><rect class="cls-27" x="58.39" y="35.17" width="0.45" height="5.3"/><rect class="cls-27" x="58.84" y="35.17" width="0.04" height="5.3"/><rect class="cls-59" x="40.25" y="38.17" width="0.1" height="15.62"/><rect class="cls-60" x="40.36" y="38.17" width="0.45" height="15.62"/><rect class="cls-61" x="40.81" y="38.17" width="0.45" height="15.62"/><rect class="cls-62" x="41.26" y="38.17" width="0.45" height="15.62"/><rect class="cls-63" x="41.71" y="38.17" width="0.45" height="15.62"/><rect class="cls-64" x="42.16" y="38.17" width="0.45" height="15.62"/><rect class="cls-65" x="42.61" y="38.17" width="0.45" height="15.62"/><rect class="cls-66" x="43.06" y="38.17" width="0.45" height="15.62"/><rect class="cls-67" x="43.51" y="38.17" width="0.45" height="15.62"/><rect class="cls-68" x="43.96" y="38.17" width="0.45" height="15.62"/><rect class="cls-69" x="44.41" y="38.17" width="0.45" height="15.62"/><rect class="cls-70" x="44.86" y="38.17" width="0.45" height="15.62"/><rect class="cls-71" x="45.32" y="38.17" width="0.45" height="15.62"/><rect class="cls-72" x="45.77" y="38.17" width="0.45" height="15.62"/><rect class="cls-73" x="46.22" y="38.17" width="0.45" height="15.62"/><rect class="cls-74" x="46.67" y="38.17" width="0.45" height="15.62"/><rect class="cls-75" x="47.12" y="38.17" width="0.45" height="15.62"/><rect class="cls-76" x="47.57" y="38.17" width="0.45" height="15.62"/><rect class="cls-4" x="48.02" y="38.17" width="0.45" height="15.62"/><rect class="cls-5" x="48.47" y="38.17" width="0.45" height="15.62"/><rect class="cls-6" x="48.92" y="38.17" width="0.45" height="15.62"/><rect class="cls-7" x="49.37" y="38.17" width="0.45" height="15.62"/><rect class="cls-8" x="49.82" y="38.17" width="0.45" height="15.62"/><rect class="cls-9" x="50.27" y="38.17" width="0.45" height="15.62"/><rect class="cls-10" x="50.72" y="38.17" width="0.45" height="15.62"/><rect class="cls-11" x="51.17" y="38.17" width="0.45" height="15.62"/><rect class="cls-12" x="51.62" y="38.17" width="0.45" height="15.62"/><rect class="cls-13" x="52.08" y="38.17" width="0.45" height="15.62"/><rect class="cls-14" x="52.53" y="38.17" width="0.45" height="15.62"/><rect class="cls-15" x="52.98" y="38.17" width="0.45" height="15.62"/><rect class="cls-16" x="53.43" y="38.17" width="0.45" height="15.62"/><rect class="cls-17" x="53.88" y="38.17" width="0.45" height="15.62"/><rect class="cls-18" x="54.33" y="38.17" width="0.45" height="15.62"/><rect class="cls-19" x="54.78" y="38.17" width="0.45" height="15.62"/><rect class="cls-20" x="55.23" y="38.17" width="0.45" height="15.62"/><rect class="cls-21" x="55.68" y="38.17" width="0.19" height="15.62"/><rect class="cls-49" x="20.2" y="28.16" width="0.32" height="3.88"/><rect class="cls-50" x="20.53" y="28.16" width="0.45" height="3.88"/><rect class="cls-51" x="20.98" y="28.16" width="0.45" height="3.88"/><rect class="cls-77" x="21.43" y="28.16" width="0.45" height="3.88"/><rect class="cls-78" x="21.88" y="28.16" width="0.45" height="3.88"/><rect class="cls-79" x="22.33" y="28.16" width="0.45" height="3.88"/><rect class="cls-80" x="22.78" y="28.16" width="0.45" height="3.88"/><rect class="cls-81" x="23.23" y="28.16" width="0.45" height="3.88"/><rect class="cls-82" x="23.68" y="28.16" width="0.45" height="3.88"/><rect class="cls-83" x="24.13" y="28.16" width="0.45" height="3.88"/><rect class="cls-84" x="24.58" y="28.16" width="0.45" height="3.88"/><rect class="cls-85" x="25.03" y="28.16" width="0.45" height="3.88"/><rect class="cls-86" x="25.48" y="28.16" width="0.45" height="3.88"/><rect class="cls-87" x="25.93" y="28.16" width="0.45" height="3.88"/><rect class="cls-88" x="26.38" y="28.16" width="0.45" height="3.88"/><rect class="cls-89" x="26.84" y="28.16" width="0.45" height="3.88"/><rect class="cls-90" x="27.29" y="28.16" width="0.45" height="3.88"/><rect class="cls-91" x="27.74" y="28.16" width="0.45" height="3.88"/><rect class="cls-92" x="28.19" y="28.16" width="0.45" height="3.88"/><rect class="cls-93" x="28.64" y="28.16" width="0.45" height="3.88"/><rect class="cls-94" x="29.09" y="28.16" width="0.45" height="3.88"/><rect class="cls-95" x="29.54" y="28.16" width="0.45" height="3.88"/><rect class="cls-96" x="29.99" y="28.16" width="0.45" height="3.88"/><rect class="cls-97" x="30.44" y="28.16" width="0.45" height="3.88"/><rect class="cls-98" x="30.89" y="28.16" width="0.45" height="3.88"/><rect class="cls-99" x="31.34" y="28.16" width="0.45" height="3.88"/><rect class="cls-100" x="31.79" y="28.16" width="0.45" height="3.88"/><rect class="cls-101" x="32.24" y="28.16" width="0.45" height="3.88"/><rect class="cls-102" x="32.7" y="28.16" width="0.45" height="3.88"/><rect class="cls-103" x="33.15" y="28.16" width="0.45" height="3.88"/><rect class="cls-104" x="33.6" y="28.16" width="0.45" height="3.88"/><rect class="cls-105" x="34.05" y="28.16" width="0.45" height="3.88"/><rect class="cls-106" x="34.5" y="28.16" width="0.45" height="3.88"/><rect class="cls-107" x="34.95" y="28.16" width="0.45" height="3.88"/><rect class="cls-108" x="35.4" y="28.16" width="0.45" height="3.88"/><rect class="cls-109" x="35.85" y="28.16" width="0.45" height="3.88"/><rect class="cls-110" x="36.3" y="28.16" width="0.45" height="3.88"/><rect class="cls-111" x="36.75" y="28.16" width="0.45" height="3.88"/><rect class="cls-53" x="37.2" y="28.16" width="0.45" height="3.88"/><rect class="cls-54" x="37.65" y="28.16" width="0.45" height="3.88"/><rect class="cls-55" x="38.1" y="28.16" width="0.45" height="3.88"/><rect class="cls-56" x="38.55" y="28.16" width="0.45" height="3.88"/><rect class="cls-57" x="39" y="28.16" width="0.45" height="3.88"/><rect class="cls-58" x="39.46" y="28.16" width="0.45" height="3.88"/><rect class="cls-59" x="39.91" y="28.16" width="0.45" height="3.88"/><rect class="cls-60" x="40.36" y="28.16" width="0.45" height="3.88"/><rect class="cls-61" x="40.81" y="28.16" width="0.45" height="3.88"/><rect class="cls-62" x="41.26" y="28.16" width="0.45" height="3.88"/><rect class="cls-63" x="41.71" y="28.16" width="0.45" height="3.88"/><rect class="cls-64" x="42.16" y="28.16" width="0.45" height="3.88"/><rect class="cls-65" x="42.61" y="28.16" width="0.45" height="3.88"/><rect class="cls-66" x="43.06" y="28.16" width="0.18" height="3.88"/><rect class="cls-49" x="20.2" y="36.58" width="0.32" height="3.88"/><rect class="cls-50" x="20.53" y="36.58" width="0.45" height="3.88"/><rect class="cls-51" x="20.98" y="36.58" width="0.45" height="3.88"/><rect class="cls-77" x="21.43" y="36.58" width="0.45" height="3.88"/><rect class="cls-78" x="21.88" y="36.58" width="0.45" height="3.88"/><rect class="cls-79" x="22.33" y="36.58" width="0.45" height="3.88"/><rect class="cls-80" x="22.78" y="36.58" width="0.45" height="3.88"/><rect class="cls-81" x="23.23" y="36.58" width="0.45" height="3.88"/><rect class="cls-82" x="23.68" y="36.58" width="0.45" height="3.88"/><rect class="cls-83" x="24.13" y="36.58" width="0.45" height="3.88"/><rect class="cls-84" x="24.58" y="36.58" width="0.45" height="3.88"/><rect class="cls-85" x="25.03" y="36.58" width="0.45" height="3.88"/><rect class="cls-86" x="25.48" y="36.58" width="0.45" height="3.88"/><rect class="cls-87" x="25.93" y="36.58" width="0.45" height="3.88"/><rect class="cls-88" x="26.38" y="36.58" width="0.45" height="3.88"/><rect class="cls-89" x="26.84" y="36.58" width="0.45" height="3.88"/><rect class="cls-90" x="27.29" y="36.58" width="0.45" height="3.88"/><rect class="cls-91" x="27.74" y="36.58" width="0.45" height="3.88"/><rect class="cls-92" x="28.19" y="36.58" width="0.45" height="3.88"/><rect class="cls-93" x="28.64" y="36.58" width="0.45" height="3.88"/><rect class="cls-94" x="29.09" y="36.58" width="0.45" height="3.88"/><rect class="cls-95" x="29.54" y="36.58" width="0.45" height="3.88"/><rect class="cls-96" x="29.99" y="36.58" width="0.45" height="3.88"/><rect class="cls-97" x="30.44" y="36.58" width="0.45" height="3.88"/><rect class="cls-98" x="30.89" y="36.58" width="0.45" height="3.88"/><rect class="cls-99" x="31.34" y="36.58" width="0.45" height="3.88"/><rect class="cls-100" x="31.79" y="36.58" width="0.45" height="3.88"/><rect class="cls-101" x="32.24" y="36.58" width="0.45" height="3.88"/><rect class="cls-102" x="32.7" y="36.58" width="0.45" height="3.88"/><rect class="cls-103" x="33.15" y="36.58" width="0.45" height="3.88"/><rect class="cls-104" x="33.6" y="36.58" width="0.45" height="3.88"/><rect class="cls-105" x="34.05" y="36.58" width="0.45" height="3.88"/><rect class="cls-106" x="34.5" y="36.58" width="0.45" height="3.88"/><rect class="cls-107" x="34.95" y="36.58" width="0.45" height="3.88"/><rect class="cls-108" x="35.4" y="36.58" width="0.45" height="3.88"/><rect class="cls-109" x="35.85" y="36.58" width="0.45" height="3.88"/><rect class="cls-110" x="36.3" y="36.58" width="0.45" height="3.88"/><rect class="cls-111" x="36.75" y="36.58" width="0.45" height="3.88"/><rect class="cls-53" x="37.2" y="36.58" width="0.45" height="3.88"/><rect class="cls-54" x="37.65" y="36.58" width="0.45" height="3.88"/><rect class="cls-55" x="38.1" y="36.58" width="0.45" height="3.88"/><rect class="cls-56" x="38.55" y="36.58" width="0.45" height="3.88"/><rect class="cls-57" x="39" y="36.58" width="0.45" height="3.88"/><rect class="cls-58" x="39.46" y="36.58" width="0.45" height="3.88"/><rect class="cls-59" x="39.91" y="36.58" width="0.45" height="3.88"/><rect class="cls-60" x="40.36" y="36.58" width="0.45" height="3.88"/><rect class="cls-61" x="40.81" y="36.58" width="0.45" height="3.88"/><rect class="cls-62" x="41.26" y="36.58" width="0.45" height="3.88"/><rect class="cls-63" x="41.71" y="36.58" width="0.45" height="3.88"/><rect class="cls-64" x="42.16" y="36.58" width="0.45" height="3.88"/><rect class="cls-65" x="42.61" y="36.58" width="0.45" height="3.88"/><rect class="cls-66" x="43.06" y="36.58" width="0.18" height="3.88"/><rect class="cls-49" x="20.2" y="44.99" width="0.32" height="3.88"/><rect class="cls-50" x="20.53" y="44.99" width="0.45" height="3.88"/><rect class="cls-51" x="20.98" y="44.99" width="0.45" height="3.88"/><rect class="cls-77" x="21.43" y="44.99" width="0.45" height="3.88"/><rect class="cls-78" x="21.88" y="44.99" width="0.45" height="3.88"/><rect class="cls-79" x="22.33" y="44.99" width="0.45" height="3.88"/><rect class="cls-80" x="22.78" y="44.99" width="0.45" height="3.88"/><rect class="cls-81" x="23.23" y="44.99" width="0.45" height="3.88"/><rect class="cls-82" x="23.68" y="44.99" width="0.45" height="3.88"/><rect class="cls-83" x="24.13" y="44.99" width="0.45" height="3.88"/><rect class="cls-84" x="24.58" y="44.99" width="0.45" height="3.88"/><rect class="cls-85" x="25.03" y="44.99" width="0.45" height="3.88"/><rect class="cls-86" x="25.48" y="44.99" width="0.45" height="3.88"/><rect class="cls-87" x="25.93" y="44.99" width="0.45" height="3.88"/><rect class="cls-88" x="26.38" y="44.99" width="0.45" height="3.88"/><rect class="cls-89" x="26.84" y="44.99" width="0.45" height="3.88"/><rect class="cls-90" x="27.29" y="44.99" width="0.45" height="3.88"/><rect class="cls-91" x="27.74" y="44.99" width="0.45" height="3.88"/><rect class="cls-92" x="28.19" y="44.99" width="0.45" height="3.88"/><rect class="cls-93" x="28.64" y="44.99" width="0.45" height="3.88"/><rect class="cls-94" x="29.09" y="44.99" width="0.45" height="3.88"/><rect class="cls-95" x="29.54" y="44.99" width="0.45" height="3.88"/><rect class="cls-96" x="29.99" y="44.99" width="0.45" height="3.88"/><rect class="cls-97" x="30.44" y="44.99" width="0.45" height="3.88"/><rect class="cls-98" x="30.89" y="44.99" width="0.45" height="3.88"/><rect class="cls-99" x="31.34" y="44.99" width="0.45" height="3.88"/><rect class="cls-100" x="31.79" y="44.99" width="0.45" height="3.88"/><rect class="cls-101" x="32.24" y="44.99" width="0.45" height="3.88"/><rect class="cls-102" x="32.7" y="44.99" width="0.45" height="3.88"/><rect class="cls-103" x="33.15" y="44.99" width="0.45" height="3.88"/><rect class="cls-104" x="33.6" y="44.99" width="0.45" height="3.88"/><rect class="cls-105" x="34.05" y="44.99" width="0.45" height="3.88"/><rect class="cls-106" x="34.5" y="44.99" width="0.45" height="3.88"/><rect class="cls-107" x="34.95" y="44.99" width="0.45" height="3.88"/><rect class="cls-108" x="35.4" y="44.99" width="0.18" height="3.88"/><path class="cls-28" d="M10.61,11.35v0Z"/><rect class="cls-28" x="10.61" y="11.35" width="0.45" height="45.16"/><rect class="cls-29" x="11.06" y="11.35" width="0.45" height="45.16"/><rect class="cls-30" x="11.51" y="11.35" width="0.45" height="45.16"/><rect class="cls-31" x="11.96" y="11.35" width="0.45" height="45.16"/><rect class="cls-32" x="12.41" y="11.35" width="0.45" height="45.16"/><rect class="cls-33" x="12.86" y="11.35" width="0.45" height="45.16"/><rect class="cls-34" x="13.31" y="11.35" width="0.45" height="45.16"/><rect class="cls-35" x="13.76" y="11.35" width="0.45" height="45.16"/><rect class="cls-36" x="14.22" y="11.35" width="0.45" height="45.16"/><rect class="cls-37" x="14.67" y="11.35" width="0.45" height="45.16"/><rect class="cls-38" x="15.12" y="11.35" width="0.45" height="45.16"/><rect class="cls-39" x="15.57" y="11.35" width="0.45" height="45.16"/><rect class="cls-40" x="16.02" y="11.35" width="0.45" height="45.16"/><rect class="cls-41" x="16.47" y="11.35" width="0.45" height="45.16"/><rect class="cls-42" x="16.92" y="11.35" width="0.45" height="45.16"/><rect class="cls-43" x="17.37" y="11.35" width="0.45" height="45.16"/><rect class="cls-44" x="17.82" y="11.35" width="0.45" height="45.16"/><rect class="cls-45" x="18.27" y="11.35" width="0.45" height="45.16"/><rect class="cls-46" x="18.72" y="11.35" width="0.45" height="45.16"/><rect class="cls-47" x="19.17" y="11.35" width="0.45" height="45.16"/><rect class="cls-48" x="19.62" y="11.35" width="0.45" height="45.16"/><rect class="cls-49" x="20.07" y="11.35" width="0.45" height="45.16"/><rect class="cls-50" x="20.53" y="11.35" width="0.45" height="45.16"/><rect class="cls-51" x="20.98" y="11.35" width="0.45" height="45.16"/><rect class="cls-77" x="21.43" y="11.35" width="0.45" height="45.16"/><rect class="cls-78" x="21.88" y="11.35" width="0.45" height="45.16"/><rect class="cls-79" x="22.33" y="11.35" width="0.45" height="45.16"/><rect class="cls-80" x="22.78" y="11.35" width="0.45" height="45.16"/><rect class="cls-81" x="23.23" y="11.35" width="0.45" height="45.16"/><rect class="cls-82" x="23.68" y="11.35" width="0.45" height="45.16"/><rect class="cls-83" x="24.13" y="11.35" width="0.45" height="45.16"/><rect class="cls-84" x="24.58" y="11.35" width="0.45" height="45.16"/><rect class="cls-85" x="25.03" y="11.35" width="0.45" height="45.16"/><rect class="cls-86" x="25.48" y="11.35" width="0.45" height="45.16"/><rect class="cls-87" x="25.93" y="11.35" width="0.45" height="45.16"/><rect class="cls-88" x="26.38" y="11.35" width="0.45" height="45.16"/><rect class="cls-89" x="26.84" y="11.35" width="0.45" height="45.16"/><rect class="cls-90" x="27.29" y="11.35" width="0.45" height="45.16"/><rect class="cls-91" x="27.74" y="11.35" width="0.45" height="45.16"/><rect class="cls-92" x="28.19" y="11.35" width="0.45" height="45.16"/><rect class="cls-93" x="28.64" y="11.35" width="0.45" height="45.16"/><rect class="cls-94" x="29.09" y="11.35" width="0.45" height="45.16"/><rect class="cls-95" x="29.54" y="11.35" width="0.45" height="45.16"/><rect class="cls-96" x="29.99" y="11.35" width="0.45" height="45.16"/><rect class="cls-97" x="30.44" y="11.35" width="0.45" height="45.16"/><rect class="cls-98" x="30.89" y="11.35" width="0.45" height="45.16"/><rect class="cls-99" x="31.34" y="11.35" width="0.45" height="45.16"/><rect class="cls-100" x="31.79" y="11.35" width="0.45" height="45.16"/><rect class="cls-101" x="32.24" y="11.35" width="0.45" height="45.16"/><rect class="cls-102" x="32.7" y="11.35" width="0.45" height="45.16"/><rect class="cls-103" x="33.15" y="11.35" width="0.45" height="45.16"/><rect class="cls-104" x="33.6" y="11.35" width="0.45" height="45.16"/><rect class="cls-105" x="34.05" y="11.35" width="0.45" height="45.16"/><rect class="cls-106" x="34.5" y="11.35" width="0.45" height="45.16"/><rect class="cls-107" x="34.95" y="11.35" width="0.45" height="45.16"/><rect class="cls-108" x="35.4" y="11.35" width="0.45" height="45.16"/><rect class="cls-109" x="35.85" y="11.35" width="0.45" height="45.16"/><rect class="cls-110" x="36.3" y="11.35" width="0.45" height="45.16"/><rect class="cls-111" x="36.75" y="11.35" width="0.45" height="45.16"/><rect class="cls-53" x="37.2" y="11.35" width="0.45" height="45.16"/><rect class="cls-54" x="37.65" y="11.35" width="0.45" height="45.16"/><rect class="cls-55" x="38.1" y="11.35" width="0.45" height="45.16"/><rect class="cls-56" x="38.55" y="11.35" width="0.45" height="45.16"/><rect class="cls-57" x="39" y="11.35" width="0.45" height="45.16"/><rect class="cls-58" x="39.46" y="11.35" width="0.45" height="45.16"/><rect class="cls-59" x="39.91" y="11.35" width="0.45" height="45.16"/><rect class="cls-60" x="40.36" y="11.35" width="0.45" height="45.16"/><rect class="cls-61" x="40.81" y="11.35" width="0.45" height="45.16"/><rect class="cls-62" x="41.26" y="11.35" width="0.45" height="45.16"/><rect class="cls-63" x="41.71" y="11.35" width="0.45" height="45.16"/><rect class="cls-64" x="42.16" y="11.35" width="0.45" height="45.16"/><rect class="cls-65" x="42.61" y="11.35" width="0.45" height="45.16"/><rect class="cls-66" x="43.06" y="11.35" width="0.45" height="45.16"/><rect class="cls-67" x="43.51" y="11.35" width="0.45" height="45.16"/><rect class="cls-68" x="43.96" y="11.35" width="0.45" height="45.16"/><rect class="cls-69" x="44.41" y="11.35" width="0.45" height="45.16"/><rect class="cls-70" x="44.86" y="11.35" width="0.45" height="45.16"/><rect class="cls-71" x="45.32" y="11.35" width="0.45" height="45.16"/><rect class="cls-72" x="45.77" y="11.35" width="0.45" height="45.16"/><rect class="cls-73" x="46.22" y="11.35" width="0.45" height="45.16"/><rect class="cls-74" x="46.67" y="11.35" width="0.45" height="45.16"/><rect class="cls-75" x="47.12" y="11.35" width="0.45" height="45.16"/><rect class="cls-76" x="47.57" y="11.35" width="0.45" height="45.16"/><rect class="cls-4" x="48.02" y="11.35" width="0.45" height="45.16"/><rect class="cls-5" x="48.47" y="11.35" width="0.45" height="45.16"/><rect class="cls-6" x="48.92" y="11.35" width="0.45" height="45.16"/><rect class="cls-7" x="49.37" y="11.35" width="0.45" height="45.16"/><rect class="cls-8" x="49.82" y="11.35" width="0.45" height="45.16"/><rect class="cls-9" x="50.27" y="11.35" width="0.45" height="45.16"/><rect class="cls-10" x="50.72" y="11.35" width="0.45" height="45.16"/><rect class="cls-11" x="51.17" y="11.35" width="0.45" height="45.16"/><rect class="cls-12" x="51.62" y="11.35" width="0.31" height="45.16"/></g></g></g></svg>