<svg xmlns="http://www.w3.org/2000/svg" xmlns:xlink="http://www.w3.org/1999/xlink" viewBox="0 0 64 64"><defs><style>.cls-1,.cls-2{fill:none;}.cls-2{opacity:0.44;}.cls-3{clip-path:url(#clip-path);}.cls-4{fill:#ff5843;}.cls-5{fill:#ff5743;}.cls-6{fill:#ff5643;}.cls-7{fill:#ff5543;}.cls-8{fill:#ff5443;}.cls-9{fill:#ff5344;}.cls-10{fill:#ff5244;}.cls-11{fill:#ff5144;}.cls-12{fill:#ff5044;}.cls-13{fill:#ff4f44;}.cls-14{fill:#ff4e44;}.cls-15{fill:#ff4d45;}.cls-16{fill:#ff4c45;}.cls-17{fill:#ff4b45;}.cls-18{fill:#ff4a45;}.cls-19{fill:#ff4945;}.cls-20{fill:#ff4846;}.cls-21{fill:#ff4746;}.cls-22{fill:#ff4646;}.cls-23{fill:#ff4546;}.cls-24{fill:#ff4446;}.cls-25{fill:#ff4347;}.cls-26{fill:#ff4247;}.cls-27{fill:#ff4147;}.cls-28{fill:#ff4047;}.cls-29{fill:#ff3f47;}.cls-30{fill:#ff3e47;}.cls-31{fill:#ff3d48;}.cls-32{fill:#ff3c48;}.cls-33{fill:#ff3b48;}.cls-34{fill:#ff3a48;}.cls-35{fill:#ff3948;}.cls-36{fill:#ff3849;}.cls-37{fill:#ff3749;}.cls-38{fill:#ff3649;}.cls-39{fill:#ff3449;}.cls-40{fill:#ff3349;}.cls-41{fill:#ff324a;}.cls-42{fill:#ff314a;}.cls-43{fill:#ff304a;}.cls-44{fill:#ff2f4a;}.cls-45{fill:#ff2e4a;}.cls-46{fill:#ff2d4b;}.cls-47{fill:#ff2c4b;}.cls-48{fill:#ff2b4b;}.cls-49{fill:#ff2a4b;}.cls-50{fill:#ff294b;}.cls-51{fill:#ff284b;}.cls-52{fill:#ff274c;}.cls-53{fill:#ff264c;}.cls-54{fill:#ff254c;}.cls-55{fill:#ff244c;}.cls-56{fill:#ff234c;}.cls-57{fill:#ff224d;}.cls-58{fill:#ff214d;}.cls-59{fill:#ff204d;}.cls-60{fill:#ff1f4d;}.cls-61{fill:#ff1e4d;}.cls-62{fill:#ff1d4e;}.cls-63{fill:#ff1c4e;}.cls-64{fill:#ff1b4e;}.cls-65{fill:#ff1a4e;}.cls-66{fill:#ff194e;}.cls-67{fill:#ff184e;}.cls-68{fill:#ff174f;}.cls-69{fill:#ff164f;}.cls-70{fill:#ff154f;}.cls-71{fill:#ff144f;}.cls-72{fill:#ff134f;}.cls-73{fill:#ff6b3f;}.cls-74{fill:#ff6a3f;}.cls-75{fill:#ff693f;}.cls-76{fill:#ff6840;}.cls-77{fill:#ff6740;}.cls-78{fill:#ff6640;}.cls-79{fill:#ff6540;}.cls-80{fill:#ff6440;}.cls-81{fill:#ff6341;}.cls-82{fill:#ff6241;}.cls-83{fill:#ff6141;}.cls-84{fill:#ff6041;}.cls-85{fill:#ff5f41;}.cls-86{fill:#ff5e41;}.cls-87{fill:#ff5d42;}.cls-88{fill:#ff5c42;}.cls-89{fill:#ff5b42;}.cls-90{fill:#ff5a42;}.cls-91{fill:#ff5942;}.cls-92{fill:#ff1250;}.cls-93{fill:#ff1150;}.cls-94{fill:#ff1050;}.cls-95{fill:#ff0f50;}.cls-96{fill:#ff0e50;}.cls-97{fill:#ff0d51;}.cls-98{fill:#ff0c51;}.cls-99{fill:#ff0b51;}.cls-100{fill:#ff0a51;}.cls-101{fill:#ff0951;}.cls-102{fill:#ff0851;}.cls-103{fill:#ff0752;}.cls-104{fill:#ff0652;}.cls-105{fill:#ff0552;}.cls-106{fill:#ff0452;}.cls-107{fill:#ff0352;}.cls-108{fill:#ff0253;}.cls-109{fill:#ff0153;}.cls-110{fill:#ff0053;}</style><clipPath id="clip-path"><path class="cls-1" d="M15.81,36.3A1.12,1.12,0,0,1,17,35.12H40.63a1.18,1.18,0,0,1,0,2.36H17a1.12,1.12,0,0,1-1.19-1.18m0-8.27A1.12,1.12,0,0,1,17,26.85H47.72a1.18,1.18,0,0,1,0,2.36H17A1.12,1.12,0,0,1,15.81,28m0-8.27A1.13,1.13,0,0,1,17,18.57H47.72a1.19,1.19,0,0,1,0,2.37H17a1.13,1.13,0,0,1-1.19-1.18M9.9,7.94a3.45,3.45,0,0,0-3.54,3.42V44.57A3.56,3.56,0,0,0,9.9,48.12h4.73V59.94l16.55-11.7H54.81a3.56,3.56,0,0,0,3.55-3.55V11.36a3.46,3.46,0,0,0-3.55-3.42Z"/></clipPath></defs><title>资源 43</title><g id="图层_2" data-name="图层 2"><g id="图层_1-2" data-name="图层 1"><rect class="cls-2" width="64" height="64"/><g class="cls-3"><rect class="cls-4" x="15.81" y="18.57" width="0.27" height="2.36"/><rect class="cls-5" x="16.08" y="18.57" width="0.49" height="2.36"/><rect class="cls-6" x="16.57" y="18.57" width="0.48" height="2.36"/><rect class="cls-7" x="17.05" y="18.57" width="0.49" height="2.36"/><rect class="cls-8" x="17.54" y="18.57" width="0.48" height="2.36"/><rect class="cls-9" x="18.02" y="18.57" width="0.49" height="2.36"/><rect class="cls-10" x="18.51" y="18.57" width="0.49" height="2.36"/><rect class="cls-11" x="19" y="18.57" width="0.48" height="2.36"/><rect class="cls-12" x="19.48" y="18.57" width="0.49" height="2.36"/><rect class="cls-13" x="19.97" y="18.57" width="0.49" height="2.36"/><rect class="cls-14" x="20.45" y="18.57" width="0.48" height="2.36"/><rect class="cls-15" x="20.94" y="18.57" width="0.49" height="2.36"/><rect class="cls-16" x="21.43" y="18.57" width="0.49" height="2.36"/><rect class="cls-17" x="21.91" y="18.57" width="0.48" height="2.36"/><rect class="cls-18" x="22.4" y="18.57" width="0.49" height="2.36"/><rect class="cls-19" x="22.88" y="18.57" width="0.49" height="2.36"/><rect class="cls-20" x="23.37" y="18.57" width="0.48" height="2.36"/><rect class="cls-21" x="23.85" y="18.57" width="0.49" height="2.36"/><rect class="cls-22" x="24.34" y="18.57" width="0.49" height="2.36"/><rect class="cls-23" x="24.83" y="18.57" width="0.48" height="2.36"/><rect class="cls-24" x="25.31" y="18.57" width="0.49" height="2.36"/><rect class="cls-25" x="25.8" y="18.57" width="0.48" height="2.36"/><rect class="cls-26" x="26.28" y="18.57" width="0.49" height="2.36"/><rect class="cls-27" x="26.77" y="18.57" width="0.49" height="2.36"/><rect class="cls-28" x="27.26" y="18.57" width="0.48" height="2.36"/><rect class="cls-29" x="27.74" y="18.57" width="0.49" height="2.36"/><rect class="cls-30" x="28.23" y="18.57" width="0.49" height="2.36"/><rect class="cls-31" x="28.72" y="18.57" width="0.48" height="2.36"/><rect class="cls-32" x="29.2" y="18.57" width="0.49" height="2.36"/><rect class="cls-33" x="29.69" y="18.57" width="0.49" height="2.36"/><rect class="cls-34" x="30.17" y="18.57" width="0.48" height="2.36"/><rect class="cls-35" x="30.66" y="18.57" width="0.49" height="2.36"/><rect class="cls-36" x="31.14" y="18.57" width="0.49" height="2.36"/><rect class="cls-37" x="31.63" y="18.57" width="0.48" height="2.36"/><rect class="cls-38" x="32.12" y="18.57" width="0.49" height="2.36"/><rect class="cls-39" x="32.6" y="18.57" width="0.48" height="2.36"/><rect class="cls-40" x="33.09" y="18.57" width="0.49" height="2.36"/><rect class="cls-41" x="33.57" y="18.57" width="0.49" height="2.36"/><rect class="cls-42" x="34.06" y="18.57" width="0.48" height="2.36"/><rect class="cls-43" x="34.55" y="18.57" width="0.49" height="2.36"/><rect class="cls-44" x="35.03" y="18.57" width="0.49" height="2.36"/><rect class="cls-45" x="35.52" y="18.57" width="0.48" height="2.36"/><rect class="cls-46" x="36" y="18.57" width="0.49" height="2.36"/><rect class="cls-47" x="36.49" y="18.57" width="0.49" height="2.36"/><rect class="cls-48" x="36.98" y="18.57" width="0.48" height="2.36"/><rect class="cls-49" x="37.46" y="18.57" width="0.49" height="2.36"/><rect class="cls-50" x="37.95" y="18.57" width="0.49" height="2.36"/><rect class="cls-51" x="38.44" y="18.57" width="0.48" height="2.36"/><rect class="cls-52" x="38.92" y="18.57" width="0.49" height="2.36"/><rect class="cls-53" x="39.41" y="18.57" width="0.48" height="2.36"/><rect class="cls-54" x="39.89" y="18.57" width="0.49" height="2.36"/><rect class="cls-55" x="40.38" y="18.57" width="0.49" height="2.36"/><rect class="cls-56" x="40.86" y="18.57" width="0.48" height="2.36"/><rect class="cls-57" x="41.35" y="18.57" width="0.49" height="2.36"/><rect class="cls-58" x="41.84" y="18.57" width="0.49" height="2.36"/><rect class="cls-59" x="42.32" y="18.57" width="0.48" height="2.36"/><rect class="cls-60" x="42.81" y="18.57" width="0.49" height="2.36"/><rect class="cls-61" x="43.29" y="18.57" width="0.49" height="2.36"/><rect class="cls-62" x="43.78" y="18.57" width="0.48" height="2.36"/><rect class="cls-63" x="44.27" y="18.57" width="0.49" height="2.36"/><rect class="cls-64" x="44.75" y="18.57" width="0.49" height="2.36"/><rect class="cls-65" x="45.24" y="18.57" width="0.48" height="2.36"/><rect class="cls-66" x="45.72" y="18.57" width="0.49" height="2.36"/><rect class="cls-67" x="46.21" y="18.57" width="0.49" height="2.36"/><rect class="cls-68" x="46.7" y="18.57" width="0.48" height="2.36"/><rect class="cls-69" x="47.18" y="18.57" width="0.49" height="2.36"/><rect class="cls-70" x="47.67" y="18.57" width="0.48" height="2.36"/><rect class="cls-71" x="48.15" y="18.57" width="0.49" height="2.36"/><rect class="cls-72" x="48.64" y="18.57" width="0.27" height="2.36"/><rect class="cls-4" x="15.81" y="26.85" width="0.27" height="2.36"/><rect class="cls-5" x="16.08" y="26.85" width="0.49" height="2.36"/><rect class="cls-6" x="16.57" y="26.85" width="0.48" height="2.36"/><rect class="cls-7" x="17.05" y="26.85" width="0.49" height="2.36"/><rect class="cls-8" x="17.54" y="26.85" width="0.48" height="2.36"/><rect class="cls-9" x="18.02" y="26.85" width="0.49" height="2.36"/><rect class="cls-10" x="18.51" y="26.85" width="0.49" height="2.36"/><rect class="cls-11" x="19" y="26.85" width="0.48" height="2.36"/><rect class="cls-12" x="19.48" y="26.85" width="0.49" height="2.36"/><rect class="cls-13" x="19.97" y="26.85" width="0.49" height="2.36"/><rect class="cls-14" x="20.45" y="26.85" width="0.48" height="2.36"/><rect class="cls-15" x="20.94" y="26.85" width="0.49" height="2.36"/><rect class="cls-16" x="21.43" y="26.85" width="0.49" height="2.36"/><rect class="cls-17" x="21.91" y="26.85" width="0.48" height="2.36"/><rect class="cls-18" x="22.4" y="26.85" width="0.49" height="2.36"/><rect class="cls-19" x="22.88" y="26.85" width="0.49" height="2.36"/><rect class="cls-20" x="23.37" y="26.85" width="0.48" height="2.36"/><rect class="cls-21" x="23.85" y="26.85" width="0.49" height="2.36"/><rect class="cls-22" x="24.34" y="26.85" width="0.49" height="2.36"/><rect class="cls-23" x="24.83" y="26.85" width="0.48" height="2.36"/><rect class="cls-24" x="25.31" y="26.85" width="0.49" height="2.36"/><rect class="cls-25" x="25.8" y="26.85" width="0.48" height="2.36"/><rect class="cls-26" x="26.28" y="26.85" width="0.49" height="2.36"/><rect class="cls-27" x="26.77" y="26.85" width="0.49" height="2.36"/><rect class="cls-28" x="27.26" y="26.85" width="0.48" height="2.36"/><rect class="cls-29" x="27.74" y="26.85" width="0.49" height="2.36"/><rect class="cls-30" x="28.23" y="26.85" width="0.49" height="2.36"/><rect class="cls-31" x="28.72" y="26.85" width="0.48" height="2.36"/><rect class="cls-32" x="29.2" y="26.85" width="0.49" height="2.36"/><rect class="cls-33" x="29.69" y="26.85" width="0.49" height="2.36"/><rect class="cls-34" x="30.17" y="26.85" width="0.48" height="2.36"/><rect class="cls-35" x="30.66" y="26.85" width="0.49" height="2.36"/><rect class="cls-36" x="31.14" y="26.85" width="0.49" height="2.36"/><rect class="cls-37" x="31.63" y="26.85" width="0.48" height="2.36"/><rect class="cls-38" x="32.12" y="26.85" width="0.49" height="2.36"/><rect class="cls-39" x="32.6" y="26.85" width="0.48" height="2.36"/><rect class="cls-40" x="33.09" y="26.85" width="0.49" height="2.36"/><rect class="cls-41" x="33.57" y="26.85" width="0.49" height="2.36"/><rect class="cls-42" x="34.06" y="26.85" width="0.48" height="2.36"/><rect class="cls-43" x="34.55" y="26.85" width="0.49" height="2.36"/><rect class="cls-44" x="35.03" y="26.85" width="0.49" height="2.36"/><rect class="cls-45" x="35.52" y="26.85" width="0.48" height="2.36"/><rect class="cls-46" x="36" y="26.85" width="0.49" height="2.36"/><rect class="cls-47" x="36.49" y="26.85" width="0.49" height="2.36"/><rect class="cls-48" x="36.98" y="26.85" width="0.48" height="2.36"/><rect class="cls-49" x="37.46" y="26.85" width="0.49" height="2.36"/><rect class="cls-50" x="37.95" y="26.85" width="0.49" height="2.36"/><rect class="cls-51" x="38.44" y="26.85" width="0.48" height="2.36"/><rect class="cls-52" x="38.92" y="26.85" width="0.49" height="2.36"/><rect class="cls-53" x="39.41" y="26.85" width="0.48" height="2.36"/><rect class="cls-54" x="39.89" y="26.85" width="0.49" height="2.36"/><rect class="cls-55" x="40.38" y="26.85" width="0.49" height="2.36"/><rect class="cls-56" x="40.86" y="26.85" width="0.48" height="2.36"/><rect class="cls-57" x="41.35" y="26.85" width="0.49" height="2.36"/><rect class="cls-58" x="41.84" y="26.85" width="0.49" height="2.36"/><rect class="cls-59" x="42.32" y="26.85" width="0.48" height="2.36"/><rect class="cls-60" x="42.81" y="26.85" width="0.49" height="2.36"/><rect class="cls-61" x="43.29" y="26.85" width="0.49" height="2.36"/><rect class="cls-62" x="43.78" y="26.85" width="0.48" height="2.36"/><rect class="cls-63" x="44.27" y="26.85" width="0.49" height="2.36"/><rect class="cls-64" x="44.75" y="26.85" width="0.49" height="2.36"/><rect class="cls-65" x="45.24" y="26.85" width="0.48" height="2.36"/><rect class="cls-66" x="45.72" y="26.85" width="0.49" height="2.36"/><rect class="cls-67" x="46.21" y="26.85" width="0.49" height="2.36"/><rect class="cls-68" x="46.7" y="26.85" width="0.48" height="2.36"/><rect class="cls-69" x="47.18" y="26.85" width="0.49" height="2.36"/><rect class="cls-70" x="47.67" y="26.85" width="0.48" height="2.36"/><rect class="cls-71" x="48.15" y="26.85" width="0.49" height="2.36"/><rect class="cls-72" x="48.64" y="26.85" width="0.27" height="2.36"/><rect class="cls-4" x="15.81" y="35.12" width="0.27" height="2.36"/><rect class="cls-5" x="16.08" y="35.12" width="0.49" height="2.36"/><rect class="cls-6" x="16.57" y="35.12" width="0.48" height="2.36"/><rect class="cls-7" x="17.05" y="35.12" width="0.49" height="2.36"/><rect class="cls-8" x="17.54" y="35.12" width="0.48" height="2.36"/><rect class="cls-9" x="18.02" y="35.12" width="0.49" height="2.36"/><rect class="cls-10" x="18.51" y="35.12" width="0.49" height="2.36"/><rect class="cls-11" x="19" y="35.12" width="0.48" height="2.36"/><rect class="cls-12" x="19.48" y="35.12" width="0.49" height="2.36"/><rect class="cls-13" x="19.97" y="35.12" width="0.49" height="2.36"/><rect class="cls-14" x="20.45" y="35.12" width="0.48" height="2.36"/><rect class="cls-15" x="20.94" y="35.12" width="0.49" height="2.36"/><rect class="cls-16" x="21.43" y="35.12" width="0.49" height="2.36"/><rect class="cls-17" x="21.91" y="35.12" width="0.48" height="2.36"/><rect class="cls-18" x="22.4" y="35.12" width="0.49" height="2.36"/><rect class="cls-19" x="22.88" y="35.12" width="0.49" height="2.36"/><rect class="cls-20" x="23.37" y="35.12" width="0.48" height="2.36"/><rect class="cls-21" x="23.85" y="35.12" width="0.49" height="2.36"/><rect class="cls-22" x="24.34" y="35.12" width="0.49" height="2.36"/><rect class="cls-23" x="24.83" y="35.12" width="0.48" height="2.36"/><rect class="cls-24" x="25.31" y="35.12" width="0.49" height="2.36"/><rect class="cls-25" x="25.8" y="35.12" width="0.48" height="2.36"/><rect class="cls-26" x="26.28" y="35.12" width="0.49" height="2.36"/><rect class="cls-27" x="26.77" y="35.12" width="0.49" height="2.36"/><rect class="cls-28" x="27.26" y="35.12" width="0.48" height="2.36"/><rect class="cls-29" x="27.74" y="35.12" width="0.49" height="2.36"/><rect class="cls-30" x="28.23" y="35.12" width="0.49" height="2.36"/><rect class="cls-31" x="28.72" y="35.12" width="0.48" height="2.36"/><rect class="cls-32" x="29.2" y="35.12" width="0.49" height="2.36"/><rect class="cls-33" x="29.69" y="35.12" width="0.49" height="2.36"/><rect class="cls-34" x="30.17" y="35.12" width="0.48" height="2.36"/><rect class="cls-35" x="30.66" y="35.12" width="0.49" height="2.36"/><rect class="cls-36" x="31.14" y="35.12" width="0.49" height="2.36"/><rect class="cls-37" x="31.63" y="35.12" width="0.48" height="2.36"/><rect class="cls-38" x="32.12" y="35.12" width="0.49" height="2.36"/><rect class="cls-39" x="32.6" y="35.12" width="0.48" height="2.36"/><rect class="cls-40" x="33.09" y="35.12" width="0.49" height="2.36"/><rect class="cls-41" x="33.57" y="35.12" width="0.49" height="2.36"/><rect class="cls-42" x="34.06" y="35.12" width="0.48" height="2.36"/><rect class="cls-43" x="34.55" y="35.12" width="0.49" height="2.36"/><rect class="cls-44" x="35.03" y="35.12" width="0.49" height="2.36"/><rect class="cls-45" x="35.52" y="35.12" width="0.48" height="2.36"/><rect class="cls-46" x="36" y="35.12" width="0.49" height="2.36"/><rect class="cls-47" x="36.49" y="35.12" width="0.49" height="2.36"/><rect class="cls-48" x="36.98" y="35.12" width="0.48" height="2.36"/><rect class="cls-49" x="37.46" y="35.12" width="0.49" height="2.36"/><rect class="cls-50" x="37.95" y="35.12" width="0.49" height="2.36"/><rect class="cls-51" x="38.44" y="35.12" width="0.48" height="2.36"/><rect class="cls-52" x="38.92" y="35.12" width="0.49" height="2.36"/><rect class="cls-53" x="39.41" y="35.12" width="0.48" height="2.36"/><rect class="cls-54" x="39.89" y="35.12" width="0.49" height="2.36"/><rect class="cls-55" x="40.38" y="35.12" width="0.49" height="2.36"/><rect class="cls-56" x="40.86" y="35.12" width="0.48" height="2.36"/><rect class="cls-57" x="41.35" y="35.12" width="0.46" height="2.36"/><path class="cls-73" d="M6.36,7.94v0Z"/><rect class="cls-73" x="6.36" y="7.94" width="0.49" height="52"/><rect class="cls-74" x="6.85" y="7.94" width="0.48" height="52"/><rect class="cls-75" x="7.33" y="7.94" width="0.49" height="52"/><rect class="cls-76" x="7.82" y="7.94" width="0.49" height="52"/><rect class="cls-77" x="8.3" y="7.94" width="0.48" height="52"/><rect class="cls-78" x="8.79" y="7.94" width="0.49" height="52"/><rect class="cls-79" x="9.28" y="7.94" width="0.49" height="52"/><rect class="cls-80" x="9.76" y="7.94" width="0.48" height="52"/><rect class="cls-81" x="10.25" y="7.94" width="0.49" height="52"/><rect class="cls-82" x="10.73" y="7.94" width="0.48" height="52"/><rect class="cls-83" x="11.22" y="7.94" width="0.49" height="52"/><rect class="cls-84" x="11.71" y="7.94" width="0.49" height="52"/><rect class="cls-85" x="12.19" y="7.94" width="0.48" height="52"/><rect class="cls-86" x="12.68" y="7.94" width="0.49" height="52"/><rect class="cls-87" x="13.16" y="7.94" width="0.49" height="52"/><rect class="cls-88" x="13.65" y="7.94" width="0.48" height="52"/><rect class="cls-89" x="14.14" y="7.94" width="0.49" height="52"/><rect class="cls-90" x="14.62" y="7.94" width="0.49" height="52"/><rect class="cls-91" x="15.11" y="7.94" width="0.48" height="52"/><rect class="cls-4" x="15.59" y="7.94" width="0.49" height="52"/><rect class="cls-5" x="16.08" y="7.94" width="0.49" height="52"/><rect class="cls-6" x="16.57" y="7.94" width="0.48" height="52"/><rect class="cls-7" x="17.05" y="7.94" width="0.49" height="52"/><rect class="cls-8" x="17.54" y="7.94" width="0.48" height="52"/><rect class="cls-9" x="18.02" y="7.94" width="0.49" height="52"/><rect class="cls-10" x="18.51" y="7.94" width="0.49" height="52"/><rect class="cls-11" x="19" y="7.94" width="0.48" height="52"/><rect class="cls-12" x="19.48" y="7.94" width="0.49" height="52"/><rect class="cls-13" x="19.97" y="7.94" width="0.49" height="52"/><rect class="cls-14" x="20.45" y="7.94" width="0.48" height="52"/><rect class="cls-15" x="20.94" y="7.94" width="0.49" height="52"/><rect class="cls-16" x="21.43" y="7.94" width="0.49" height="52"/><rect class="cls-17" x="21.91" y="7.94" width="0.48" height="52"/><rect class="cls-18" x="22.4" y="7.94" width="0.49" height="52"/><rect class="cls-19" x="22.88" y="7.94" width="0.49" height="52"/><rect class="cls-20" x="23.37" y="7.94" width="0.48" height="52"/><rect class="cls-21" x="23.85" y="7.94" width="0.49" height="52"/><rect class="cls-22" x="24.34" y="7.94" width="0.49" height="52"/><rect class="cls-23" x="24.83" y="7.94" width="0.48" height="52"/><rect class="cls-24" x="25.31" y="7.94" width="0.49" height="52"/><rect class="cls-25" x="25.8" y="7.94" width="0.48" height="52"/><rect class="cls-26" x="26.28" y="7.94" width="0.49" height="52"/><rect class="cls-27" x="26.77" y="7.94" width="0.49" height="52"/><rect class="cls-28" x="27.26" y="7.94" width="0.48" height="52"/><rect class="cls-29" x="27.74" y="7.94" width="0.49" height="52"/><rect class="cls-30" x="28.23" y="7.94" width="0.49" height="52"/><rect class="cls-31" x="28.72" y="7.94" width="0.48" height="52"/><rect class="cls-32" x="29.2" y="7.94" width="0.49" height="52"/><rect class="cls-33" x="29.69" y="7.94" width="0.49" height="52"/><rect class="cls-34" x="30.17" y="7.94" width="0.48" height="52"/><rect class="cls-35" x="30.66" y="7.94" width="0.49" height="52"/><rect class="cls-36" x="31.14" y="7.94" width="0.49" height="52"/><rect class="cls-37" x="31.63" y="7.94" width="0.48" height="52"/><rect class="cls-38" x="32.12" y="7.94" width="0.49" height="52"/><rect class="cls-39" x="32.6" y="7.94" width="0.48" height="52"/><rect class="cls-40" x="33.09" y="7.94" width="0.49" height="52"/><rect class="cls-41" x="33.57" y="7.94" width="0.49" height="52"/><rect class="cls-42" x="34.06" y="7.94" width="0.48" height="52"/><rect class="cls-43" x="34.55" y="7.94" width="0.49" height="52"/><rect class="cls-44" x="35.03" y="7.94" width="0.49" height="52"/><rect class="cls-45" x="35.52" y="7.94" width="0.48" height="52"/><rect class="cls-46" x="36" y="7.94" width="0.49" height="52"/><rect class="cls-47" x="36.49" y="7.94" width="0.49" height="52"/><rect class="cls-48" x="36.98" y="7.94" width="0.48" height="52"/><rect class="cls-49" x="37.46" y="7.94" width="0.49" height="52"/><rect class="cls-50" x="37.95" y="7.94" width="0.49" height="52"/><rect class="cls-51" x="38.44" y="7.94" width="0.48" height="52"/><rect class="cls-52" x="38.92" y="7.94" width="0.49" height="52"/><rect class="cls-53" x="39.41" y="7.94" width="0.48" height="52"/><rect class="cls-54" x="39.89" y="7.94" width="0.49" height="52"/><rect class="cls-55" x="40.38" y="7.94" width="0.49" height="52"/><rect class="cls-56" x="40.86" y="7.94" width="0.48" height="52"/><rect class="cls-57" x="41.35" y="7.94" width="0.49" height="52"/><rect class="cls-58" x="41.84" y="7.94" width="0.49" height="52"/><rect class="cls-59" x="42.32" y="7.94" width="0.48" height="52"/><rect class="cls-60" x="42.81" y="7.94" width="0.49" height="52"/><rect class="cls-61" x="43.29" y="7.94" width="0.49" height="52"/><rect class="cls-62" x="43.78" y="7.94" width="0.48" height="52"/><rect class="cls-63" x="44.27" y="7.94" width="0.49" height="52"/><rect class="cls-64" x="44.75" y="7.94" width="0.49" height="52"/><rect class="cls-65" x="45.24" y="7.94" width="0.48" height="52"/><rect class="cls-66" x="45.72" y="7.94" width="0.49" height="52"/><rect class="cls-67" x="46.21" y="7.94" width="0.49" height="52"/><rect class="cls-68" x="46.7" y="7.94" width="0.48" height="52"/><rect class="cls-69" x="47.18" y="7.94" width="0.49" height="52"/><rect class="cls-70" x="47.67" y="7.94" width="0.48" height="52"/><rect class="cls-71" x="48.15" y="7.94" width="0.49" height="52"/><rect class="cls-72" x="48.64" y="7.94" width="0.49" height="52"/><rect class="cls-92" x="49.13" y="7.94" width="0.48" height="52"/><rect class="cls-93" x="49.61" y="7.94" width="0.49" height="52"/><rect class="cls-94" x="50.1" y="7.94" width="0.49" height="52"/><rect class="cls-95" x="50.58" y="7.94" width="0.48" height="52"/><rect class="cls-96" x="51.07" y="7.94" width="0.49" height="52"/><rect class="cls-97" x="51.56" y="7.94" width="0.49" height="52"/><rect class="cls-98" x="52.04" y="7.94" width="0.48" height="52"/><rect class="cls-99" x="52.53" y="7.94" width="0.49" height="52"/><rect class="cls-100" x="53.01" y="7.94" width="0.49" height="52"/><rect class="cls-101" x="53.5" y="7.94" width="0.48" height="52"/><rect class="cls-102" x="53.99" y="7.94" width="0.49" height="52"/><rect class="cls-103" x="54.47" y="7.94" width="0.48" height="52"/><rect class="cls-104" x="54.96" y="7.94" width="0.49" height="52"/><rect class="cls-105" x="55.44" y="7.94" width="0.49" height="52"/><rect class="cls-106" x="55.93" y="7.94" width="0.48" height="52"/><rect class="cls-107" x="56.42" y="7.94" width="0.49" height="52"/><rect class="cls-108" x="56.9" y="7.94" width="0.49" height="52"/><rect class="cls-109" x="57.39" y="7.94" width="0.48" height="52"/><rect class="cls-110" x="57.87" y="7.94" width="0.49" height="52"/><path class="cls-110" d="M58.36,59.94v0Z"/></g></g></g></svg>