<svg xmlns="http://www.w3.org/2000/svg" xmlns:xlink="http://www.w3.org/1999/xlink" viewBox="0 0 64 64"><defs><style>.cls-1,.cls-2{fill:none;}.cls-2{opacity:0.44;}.cls-3{clip-path:url(#clip-path);}.cls-4{fill:#ff314a;}.cls-5{fill:#ff304a;}.cls-6{fill:#ff2f4a;}.cls-7{fill:#ff2e4a;}.cls-8{fill:#ff2d4b;}.cls-9{fill:#ff2c4b;}.cls-10{fill:#ff2b4b;}.cls-11{fill:#ff2a4b;}.cls-12{fill:#ff294b;}.cls-13{fill:#ff284b;}.cls-14{fill:#ff274c;}.cls-15{fill:#ff264c;}.cls-16{fill:#ff254c;}.cls-17{fill:#ff244c;}.cls-18{fill:#ff234c;}.cls-19{fill:#ff224d;}.cls-20{fill:#ff214d;}.cls-21{fill:#ff204d;}.cls-22{fill:#ff1f4d;}.cls-23{fill:#ff1e4d;}.cls-24{fill:#ff1d4e;}.cls-25{fill:#ff1c4e;}.cls-26{fill:#ff1b4e;}.cls-27{fill:#ff1a4e;}.cls-28{fill:#ff194e;}.cls-29{fill:#ff184e;}.cls-30{fill:#ff174f;}.cls-31{fill:#ff164f;}.cls-32{fill:#ff154f;}.cls-33{fill:#ff144f;}.cls-34{fill:#ff134f;}.cls-35{fill:#ff1250;}.cls-36{fill:#ff1150;}.cls-37{fill:#ff1050;}.cls-38{fill:#ff0f50;}.cls-39{fill:#ff0e50;}.cls-40{fill:#ff0d51;}.cls-41{fill:#ff0c51;}.cls-42{fill:#ff0b51;}.cls-43{fill:#ff0a51;}.cls-44{fill:#ff0951;}.cls-45{fill:#ff0851;}.cls-46{fill:#ff0752;}.cls-47{fill:#ff0652;}.cls-48{fill:#ff0552;}.cls-49{fill:#ff0452;}.cls-50{fill:#ff0352;}.cls-51{fill:#ff0253;}.cls-52{fill:#ff0153;}.cls-53{fill:#ff0053;}.cls-54{fill:#ff6b3f;}.cls-55{fill:#ff6a3f;}.cls-56{fill:#ff693f;}.cls-57{fill:#ff6840;}.cls-58{fill:#ff6740;}.cls-59{fill:#ff6640;}.cls-60{fill:#ff6540;}.cls-61{fill:#ff6440;}.cls-62{fill:#ff6341;}.cls-63{fill:#ff6241;}.cls-64{fill:#ff6141;}.cls-65{fill:#ff6041;}.cls-66{fill:#ff5f41;}.cls-67{fill:#ff5e41;}.cls-68{fill:#ff5d42;}.cls-69{fill:#ff5c42;}.cls-70{fill:#ff5b42;}.cls-71{fill:#ff5a42;}.cls-72{fill:#ff5942;}.cls-73{fill:#ff5843;}.cls-74{fill:#ff5743;}.cls-75{fill:#ff5643;}.cls-76{fill:#ff5543;}.cls-77{fill:#ff5443;}.cls-78{fill:#ff5344;}.cls-79{fill:#ff5244;}.cls-80{fill:#ff5144;}.cls-81{fill:#ff5044;}.cls-82{fill:#ff4f44;}.cls-83{fill:#ff4e44;}.cls-84{fill:#ff4d45;}.cls-85{fill:#ff4c45;}.cls-86{fill:#ff4b45;}.cls-87{fill:#ff4a45;}.cls-88{fill:#ff4945;}.cls-89{fill:#ff4846;}.cls-90{fill:#ff4746;}.cls-91{fill:#ff4646;}.cls-92{fill:#ff4546;}.cls-93{fill:#ff4446;}.cls-94{fill:#ff4347;}.cls-95{fill:#ff4247;}.cls-96{fill:#ff4147;}.cls-97{fill:#ff4047;}.cls-98{fill:#ff3f47;}.cls-99{fill:#ff3e47;}.cls-100{fill:#ff3d48;}.cls-101{fill:#ff3c48;}.cls-102{fill:#ff3b48;}.cls-103{fill:#ff3a48;}</style><clipPath id="clip-path"><path class="cls-1" d="M18.43,33.86A12.07,12.07,0,1,0,30.5,45.93V33.86Zm27.86,0H34.21V45.93A12.08,12.08,0,1,0,46.29,33.86h0M18.43,6a12.07,12.07,0,0,0,0,24.14H30.5V18.07A12.07,12.07,0,0,0,18.43,6ZM34.22,18.07V30.14H46.29A12.07,12.07,0,1,0,34.22,18.07"/></clipPath></defs><title>资源 39</title><g id="图层_2" data-name="图层 2"><g id="图层_1-2" data-name="图层 1"><rect class="cls-2" width="64" height="64"/><g class="cls-3"><rect class="cls-4" x="34.21" y="33.86" width="0.34" height="24.14"/><rect class="cls-5" x="34.55" y="33.86" width="0.49" height="24.14"/><rect class="cls-6" x="35.03" y="33.86" width="0.49" height="24.14"/><rect class="cls-7" x="35.52" y="33.86" width="0.48" height="24.14"/><rect class="cls-8" x="36" y="33.86" width="0.49" height="24.14"/><rect class="cls-9" x="36.49" y="33.86" width="0.49" height="24.14"/><rect class="cls-10" x="36.98" y="33.86" width="0.48" height="24.14"/><rect class="cls-11" x="37.46" y="33.86" width="0.49" height="24.14"/><rect class="cls-12" x="37.95" y="33.86" width="0.49" height="24.14"/><rect class="cls-13" x="38.44" y="33.86" width="0.48" height="24.14"/><rect class="cls-14" x="38.92" y="33.86" width="0.49" height="24.14"/><rect class="cls-15" x="39.41" y="33.86" width="0.48" height="24.14"/><rect class="cls-16" x="39.89" y="33.86" width="0.49" height="24.14"/><rect class="cls-17" x="40.38" y="33.86" width="0.49" height="24.14"/><rect class="cls-18" x="40.86" y="33.86" width="0.48" height="24.14"/><rect class="cls-19" x="41.35" y="33.86" width="0.49" height="24.14"/><rect class="cls-20" x="41.84" y="33.86" width="0.49" height="24.14"/><rect class="cls-21" x="42.32" y="33.86" width="0.48" height="24.14"/><rect class="cls-22" x="42.81" y="33.86" width="0.49" height="24.14"/><rect class="cls-23" x="43.29" y="33.86" width="0.49" height="24.14"/><rect class="cls-24" x="43.78" y="33.86" width="0.48" height="24.14"/><rect class="cls-25" x="44.27" y="33.86" width="0.49" height="24.14"/><rect class="cls-26" x="44.75" y="33.86" width="0.49" height="24.14"/><rect class="cls-27" x="45.24" y="33.86" width="0.48" height="24.14"/><rect class="cls-28" x="45.72" y="33.86" width="0.49" height="24.14"/><rect class="cls-29" x="46.21" y="33.86" width="0.49" height="24.14"/><rect class="cls-30" x="46.7" y="33.86" width="0.48" height="24.14"/><rect class="cls-31" x="47.18" y="33.86" width="0.49" height="24.14"/><rect class="cls-32" x="47.67" y="33.86" width="0.48" height="24.14"/><rect class="cls-33" x="48.15" y="33.86" width="0.49" height="24.14"/><rect class="cls-34" x="48.64" y="33.86" width="0.49" height="24.14"/><rect class="cls-35" x="49.13" y="33.86" width="0.48" height="24.14"/><rect class="cls-36" x="49.61" y="33.86" width="0.49" height="24.14"/><rect class="cls-37" x="50.1" y="33.86" width="0.49" height="24.14"/><rect class="cls-38" x="50.58" y="33.86" width="0.48" height="24.14"/><rect class="cls-39" x="51.07" y="33.86" width="0.49" height="24.14"/><rect class="cls-40" x="51.56" y="33.86" width="0.49" height="24.14"/><rect class="cls-41" x="52.04" y="33.86" width="0.48" height="24.14"/><rect class="cls-42" x="52.53" y="33.86" width="0.49" height="24.14"/><rect class="cls-43" x="53.01" y="33.86" width="0.49" height="24.14"/><rect class="cls-44" x="53.5" y="33.86" width="0.48" height="24.14"/><rect class="cls-45" x="53.99" y="33.86" width="0.49" height="24.14"/><rect class="cls-46" x="54.47" y="33.86" width="0.48" height="24.14"/><rect class="cls-47" x="54.96" y="33.86" width="0.49" height="24.14"/><rect class="cls-48" x="55.44" y="33.86" width="0.49" height="24.14"/><rect class="cls-49" x="55.93" y="33.86" width="0.48" height="24.14"/><rect class="cls-50" x="56.42" y="33.86" width="0.49" height="24.14"/><rect class="cls-51" x="56.9" y="33.86" width="0.49" height="24.14"/><rect class="cls-52" x="57.39" y="33.86" width="0.48" height="24.14"/><rect class="cls-53" x="57.87" y="33.86" width="0.48" height="24.14"/><path class="cls-54" d="M6.36,33.86v0Z"/><rect class="cls-54" x="6.36" y="33.86" width="0.49" height="24.14"/><rect class="cls-55" x="6.85" y="33.86" width="0.48" height="24.14"/><rect class="cls-56" x="7.33" y="33.86" width="0.49" height="24.14"/><rect class="cls-57" x="7.82" y="33.86" width="0.49" height="24.14"/><rect class="cls-58" x="8.3" y="33.86" width="0.48" height="24.14"/><rect class="cls-59" x="8.79" y="33.86" width="0.49" height="24.14"/><rect class="cls-60" x="9.28" y="33.86" width="0.49" height="24.14"/><rect class="cls-61" x="9.76" y="33.86" width="0.48" height="24.14"/><rect class="cls-62" x="10.25" y="33.86" width="0.49" height="24.14"/><rect class="cls-63" x="10.73" y="33.86" width="0.48" height="24.14"/><rect class="cls-64" x="11.22" y="33.86" width="0.49" height="24.14"/><rect class="cls-65" x="11.71" y="33.86" width="0.49" height="24.14"/><rect class="cls-66" x="12.19" y="33.86" width="0.48" height="24.14"/><rect class="cls-67" x="12.68" y="33.86" width="0.49" height="24.14"/><rect class="cls-68" x="13.16" y="33.86" width="0.49" height="24.14"/><rect class="cls-69" x="13.65" y="33.86" width="0.48" height="24.14"/><rect class="cls-70" x="14.14" y="33.86" width="0.49" height="24.14"/><rect class="cls-71" x="14.62" y="33.86" width="0.49" height="24.14"/><rect class="cls-72" x="15.11" y="33.86" width="0.48" height="24.14"/><rect class="cls-73" x="15.59" y="33.86" width="0.49" height="24.14"/><rect class="cls-74" x="16.08" y="33.86" width="0.49" height="24.14"/><rect class="cls-75" x="16.57" y="33.86" width="0.48" height="24.14"/><rect class="cls-76" x="17.05" y="33.86" width="0.49" height="24.14"/><rect class="cls-77" x="17.54" y="33.86" width="0.48" height="24.14"/><rect class="cls-78" x="18.02" y="33.86" width="0.49" height="24.14"/><rect class="cls-79" x="18.51" y="33.86" width="0.49" height="24.14"/><rect class="cls-80" x="19" y="33.86" width="0.48" height="24.14"/><rect class="cls-81" x="19.48" y="33.86" width="0.49" height="24.14"/><rect class="cls-82" x="19.97" y="33.86" width="0.49" height="24.14"/><rect class="cls-83" x="20.45" y="33.86" width="0.48" height="24.14"/><rect class="cls-84" x="20.94" y="33.86" width="0.49" height="24.14"/><rect class="cls-85" x="21.43" y="33.86" width="0.49" height="24.14"/><rect class="cls-86" x="21.91" y="33.86" width="0.48" height="24.14"/><rect class="cls-87" x="22.4" y="33.86" width="0.49" height="24.14"/><rect class="cls-88" x="22.88" y="33.86" width="0.49" height="24.14"/><rect class="cls-89" x="23.37" y="33.86" width="0.48" height="24.14"/><rect class="cls-90" x="23.85" y="33.86" width="0.49" height="24.14"/><rect class="cls-91" x="24.34" y="33.86" width="0.49" height="24.14"/><rect class="cls-92" x="24.83" y="33.86" width="0.48" height="24.14"/><rect class="cls-93" x="25.31" y="33.86" width="0.49" height="24.14"/><rect class="cls-94" x="25.8" y="33.86" width="0.48" height="24.14"/><rect class="cls-95" x="26.28" y="33.86" width="0.49" height="24.14"/><rect class="cls-96" x="26.77" y="33.86" width="0.49" height="24.14"/><rect class="cls-97" x="27.26" y="33.86" width="0.48" height="24.14"/><rect class="cls-98" x="27.74" y="33.86" width="0.49" height="24.14"/><rect class="cls-99" x="28.23" y="33.86" width="0.49" height="24.14"/><rect class="cls-100" x="28.72" y="33.86" width="0.48" height="24.14"/><rect class="cls-101" x="29.2" y="33.86" width="0.49" height="24.14"/><rect class="cls-102" x="29.69" y="33.86" width="0.49" height="24.14"/><rect class="cls-103" x="30.17" y="33.86" width="0.33" height="24.14"/><rect class="cls-4" x="34.22" y="6" width="0.33" height="24.14"/><rect class="cls-5" x="34.55" y="6" width="0.49" height="24.14"/><rect class="cls-6" x="35.03" y="6" width="0.49" height="24.14"/><rect class="cls-7" x="35.52" y="6" width="0.48" height="24.14"/><rect class="cls-8" x="36" y="6" width="0.49" height="24.14"/><rect class="cls-9" x="36.49" y="6" width="0.49" height="24.14"/><rect class="cls-10" x="36.98" y="6" width="0.48" height="24.14"/><rect class="cls-11" x="37.46" y="6" width="0.49" height="24.14"/><rect class="cls-12" x="37.95" y="6" width="0.49" height="24.14"/><rect class="cls-13" x="38.44" y="6" width="0.48" height="24.14"/><rect class="cls-14" x="38.92" y="6" width="0.49" height="24.14"/><rect class="cls-15" x="39.41" y="6" width="0.48" height="24.14"/><rect class="cls-16" x="39.89" y="6" width="0.49" height="24.14"/><rect class="cls-17" x="40.38" y="6" width="0.49" height="24.14"/><rect class="cls-18" x="40.86" y="6" width="0.48" height="24.14"/><rect class="cls-19" x="41.35" y="6" width="0.49" height="24.14"/><rect class="cls-20" x="41.84" y="6" width="0.49" height="24.14"/><rect class="cls-21" x="42.32" y="6" width="0.48" height="24.14"/><rect class="cls-22" x="42.81" y="6" width="0.49" height="24.14"/><rect class="cls-23" x="43.29" y="6" width="0.49" height="24.14"/><rect class="cls-24" x="43.78" y="6" width="0.48" height="24.14"/><rect class="cls-25" x="44.27" y="6" width="0.49" height="24.14"/><rect class="cls-26" x="44.75" y="6" width="0.49" height="24.14"/><rect class="cls-27" x="45.24" y="6" width="0.48" height="24.14"/><rect class="cls-28" x="45.72" y="6" width="0.49" height="24.14"/><rect class="cls-29" x="46.21" y="6" width="0.49" height="24.14"/><rect class="cls-30" x="46.7" y="6" width="0.48" height="24.14"/><rect class="cls-31" x="47.18" y="6" width="0.49" height="24.14"/><rect class="cls-32" x="47.67" y="6" width="0.48" height="24.14"/><rect class="cls-33" x="48.15" y="6" width="0.49" height="24.14"/><rect class="cls-34" x="48.64" y="6" width="0.49" height="24.14"/><rect class="cls-35" x="49.13" y="6" width="0.48" height="24.14"/><rect class="cls-36" x="49.61" y="6" width="0.49" height="24.14"/><rect class="cls-37" x="50.1" y="6" width="0.49" height="24.14"/><rect class="cls-38" x="50.58" y="6" width="0.48" height="24.14"/><rect class="cls-39" x="51.07" y="6" width="0.49" height="24.14"/><rect class="cls-40" x="51.56" y="6" width="0.49" height="24.14"/><rect class="cls-41" x="52.04" y="6" width="0.48" height="24.14"/><rect class="cls-42" x="52.53" y="6" width="0.49" height="24.14"/><rect class="cls-43" x="53.01" y="6" width="0.49" height="24.14"/><rect class="cls-44" x="53.5" y="6" width="0.48" height="24.14"/><rect class="cls-45" x="53.99" y="6" width="0.49" height="24.14"/><rect class="cls-46" x="54.47" y="6" width="0.48" height="24.14"/><rect class="cls-47" x="54.96" y="6" width="0.49" height="24.14"/><rect class="cls-48" x="55.44" y="6" width="0.49" height="24.14"/><rect class="cls-49" x="55.93" y="6" width="0.48" height="24.14"/><rect class="cls-50" x="56.42" y="6" width="0.49" height="24.14"/><rect class="cls-51" x="56.9" y="6" width="0.49" height="24.14"/><rect class="cls-52" x="57.39" y="6" width="0.48" height="24.14"/><rect class="cls-53" x="57.87" y="6" width="0.49" height="24.14"/><path class="cls-53" d="M58.36,30.14v0Z"/><rect class="cls-54" x="6.36" y="6" width="0.48" height="24.14"/><rect class="cls-55" x="6.85" y="6" width="0.48" height="24.14"/><rect class="cls-56" x="7.33" y="6" width="0.49" height="24.14"/><rect class="cls-57" x="7.82" y="6" width="0.49" height="24.14"/><rect class="cls-58" x="8.3" y="6" width="0.48" height="24.14"/><rect class="cls-59" x="8.79" y="6" width="0.49" height="24.14"/><rect class="cls-60" x="9.28" y="6" width="0.49" height="24.14"/><rect class="cls-61" x="9.76" y="6" width="0.48" height="24.14"/><rect class="cls-62" x="10.25" y="6" width="0.49" height="24.14"/><rect class="cls-63" x="10.73" y="6" width="0.48" height="24.14"/><rect class="cls-64" x="11.22" y="6" width="0.49" height="24.14"/><rect class="cls-65" x="11.71" y="6" width="0.49" height="24.14"/><rect class="cls-66" x="12.19" y="6" width="0.48" height="24.14"/><rect class="cls-67" x="12.68" y="6" width="0.49" height="24.14"/><rect class="cls-68" x="13.16" y="6" width="0.49" height="24.14"/><rect class="cls-69" x="13.65" y="6" width="0.48" height="24.14"/><rect class="cls-70" x="14.14" y="6" width="0.49" height="24.14"/><rect class="cls-71" x="14.62" y="6" width="0.49" height="24.14"/><rect class="cls-72" x="15.11" y="6" width="0.48" height="24.14"/><rect class="cls-73" x="15.59" y="6" width="0.49" height="24.14"/><rect class="cls-74" x="16.08" y="6" width="0.49" height="24.14"/><rect class="cls-75" x="16.57" y="6" width="0.48" height="24.14"/><rect class="cls-76" x="17.05" y="6" width="0.49" height="24.14"/><rect class="cls-77" x="17.54" y="6" width="0.48" height="24.14"/><rect class="cls-78" x="18.02" y="6" width="0.49" height="24.14"/><rect class="cls-79" x="18.51" y="6" width="0.49" height="24.14"/><rect class="cls-80" x="19" y="6" width="0.48" height="24.14"/><rect class="cls-81" x="19.48" y="6" width="0.49" height="24.14"/><rect class="cls-82" x="19.97" y="6" width="0.49" height="24.14"/><rect class="cls-83" x="20.45" y="6" width="0.48" height="24.14"/><rect class="cls-84" x="20.94" y="6" width="0.49" height="24.14"/><rect class="cls-85" x="21.43" y="6" width="0.49" height="24.14"/><rect class="cls-86" x="21.91" y="6" width="0.48" height="24.14"/><rect class="cls-87" x="22.4" y="6" width="0.49" height="24.14"/><rect class="cls-88" x="22.88" y="6" width="0.49" height="24.14"/><rect class="cls-89" x="23.37" y="6" width="0.48" height="24.14"/><rect class="cls-90" x="23.85" y="6" width="0.49" height="24.14"/><rect class="cls-91" x="24.34" y="6" width="0.49" height="24.14"/><rect class="cls-92" x="24.83" y="6" width="0.48" height="24.14"/><rect class="cls-93" x="25.31" y="6" width="0.49" height="24.14"/><rect class="cls-94" x="25.8" y="6" width="0.48" height="24.14"/><rect class="cls-95" x="26.28" y="6" width="0.49" height="24.14"/><rect class="cls-96" x="26.77" y="6" width="0.49" height="24.14"/><rect class="cls-97" x="27.26" y="6" width="0.48" height="24.14"/><rect class="cls-98" x="27.74" y="6" width="0.49" height="24.14"/><rect class="cls-99" x="28.23" y="6" width="0.49" height="24.14"/><rect class="cls-100" x="28.72" y="6" width="0.48" height="24.14"/><rect class="cls-101" x="29.2" y="6" width="0.49" height="24.14"/><rect class="cls-102" x="29.69" y="6" width="0.49" height="24.14"/><rect class="cls-103" x="30.17" y="6" width="0.33" height="24.14"/></g></g></g></svg>