<svg xmlns="http://www.w3.org/2000/svg" xmlns:xlink="http://www.w3.org/1999/xlink" viewBox="0 0 64 64"><defs><style>.cls-1,.cls-2{fill:none;}.cls-2{opacity:0.44;}.cls-3{clip-path:url(#clip-path);}.cls-4{fill:url(#未命名的渐变_36);}</style><clipPath id="clip-path"><path class="cls-1" d="M42.33,36a2.65,2.65,0,1,0,2.53,2.64A2.58,2.58,0,0,0,42.33,36h0M8.45,17.42a3.8,3.8,0,0,0-3.71,3.89V55.92a3.8,3.8,0,0,0,3.71,3.89H56.64a3.8,3.8,0,0,0,3.72-3.89v-12H42.27a5.31,5.31,0,0,1,0-10.6H60.36v-12a3.8,3.8,0,0,0-3.71-3.89Zm40.18-13L23.59,15H56.66L53.45,6.63A3.71,3.71,0,0,0,50,4.19a3.55,3.55,0,0,0-1.38.28"/></clipPath><linearGradient id="未命名的渐变_36" x1="946.59" y1="-1134.87" x2="947.59" y2="-1134.87" gradientTransform="matrix(55.62, 0, 0, -55.62, -52643.94, -63089.06)" gradientUnits="userSpaceOnUse"><stop offset="0" stop-color="#ff6b3f"/><stop offset="1" stop-color="#ff0053"/></linearGradient></defs><title>资源 47</title><g id="图层_2" data-name="图层 2"><g id="图层_1-2" data-name="图层 1"><rect class="cls-2" width="64" height="64"/><g class="cls-3"><rect class="cls-4" x="4.74" y="4.19" width="55.62" height="55.63"/></g></g></g></svg>