<svg xmlns="http://www.w3.org/2000/svg" xmlns:xlink="http://www.w3.org/1999/xlink" viewBox="0 0 64 64"><defs><style>.cls-1,.cls-2{fill:none;}.cls-2{opacity:0.44;}.cls-3{clip-path:url(#clip-path);}.cls-4{fill:#ff6b3f;}.cls-5{fill:#ff6a3f;}.cls-6{fill:#ff693f;}.cls-7{fill:#ff6840;}.cls-8{fill:#ff6740;}.cls-9{fill:#ff6640;}.cls-10{fill:#ff6540;}.cls-11{fill:#ff6440;}.cls-12{fill:#ff6341;}.cls-13{fill:#ff6241;}.cls-14{fill:#ff6141;}.cls-15{fill:#ff6041;}.cls-16{fill:#ff5f41;}.cls-17{fill:#ff5e41;}.cls-18{fill:#ff5d42;}.cls-19{fill:#ff5c42;}.cls-20{fill:#ff5b42;}.cls-21{fill:#ff5a42;}.cls-22{fill:#ff5942;}.cls-23{fill:#ff5843;}.cls-24{fill:#ff5743;}.cls-25{fill:#ff5643;}.cls-26{fill:#ff5543;}.cls-27{fill:#ff5443;}.cls-28{fill:#ff5344;}.cls-29{fill:#ff5244;}.cls-30{fill:#ff5144;}.cls-31{fill:#ff5044;}.cls-32{fill:#ff4f44;}.cls-33{fill:#ff4e44;}.cls-34{fill:#ff4d45;}.cls-35{fill:#ff4c45;}.cls-36{fill:#ff4b45;}.cls-37{fill:#ff4a45;}.cls-38{fill:#ff4945;}.cls-39{fill:#ff4846;}.cls-40{fill:#ff4746;}.cls-41{fill:#ff4646;}.cls-42{fill:#ff4546;}.cls-43{fill:#ff4446;}.cls-44{fill:#ff4347;}.cls-45{fill:#ff4247;}.cls-46{fill:#ff4147;}.cls-47{fill:#ff4047;}.cls-48{fill:#ff3f47;}.cls-49{fill:#ff3e47;}.cls-50{fill:#ff3d48;}.cls-51{fill:#ff3c48;}.cls-52{fill:#ff3b48;}.cls-53{fill:#ff3a48;}.cls-54{fill:#ff3948;}.cls-55{fill:#ff3849;}.cls-56{fill:#ff3749;}.cls-57{fill:#ff3649;}.cls-58{fill:#ff3449;}.cls-59{fill:#ff3349;}.cls-60{fill:#ff324a;}.cls-61{fill:#ff314a;}.cls-62{fill:#ff304a;}.cls-63{fill:#ff2f4a;}.cls-64{fill:#ff2e4a;}.cls-65{fill:#ff2d4b;}.cls-66{fill:#ff2c4b;}.cls-67{fill:#ff2b4b;}.cls-68{fill:#ff2a4b;}.cls-69{fill:#ff294b;}.cls-70{fill:#ff284b;}.cls-71{fill:#ff274c;}.cls-72{fill:#ff264c;}.cls-73{fill:#ff254c;}.cls-74{fill:#ff244c;}.cls-75{fill:#ff234c;}.cls-76{fill:#ff224d;}.cls-77{fill:#ff214d;}.cls-78{fill:#ff204d;}.cls-79{fill:#ff1f4d;}.cls-80{fill:#ff1e4d;}.cls-81{fill:#ff1d4e;}.cls-82{fill:#ff1c4e;}.cls-83{fill:#ff1b4e;}.cls-84{fill:#ff1a4e;}.cls-85{fill:#ff194e;}.cls-86{fill:#ff184e;}.cls-87{fill:#ff174f;}.cls-88{fill:#ff164f;}.cls-89{fill:#ff154f;}.cls-90{fill:#ff144f;}.cls-91{fill:#ff134f;}.cls-92{fill:#ff1250;}.cls-93{fill:#ff1150;}.cls-94{fill:#ff1050;}.cls-95{fill:#ff0f50;}.cls-96{fill:#ff0e50;}.cls-97{fill:#ff0d51;}.cls-98{fill:#ff0c51;}.cls-99{fill:#ff0b51;}.cls-100{fill:#ff0a51;}.cls-101{fill:#ff0951;}.cls-102{fill:#ff0851;}.cls-103{fill:#ff0752;}.cls-104{fill:#ff0652;}.cls-105{fill:#ff0552;}.cls-106{fill:#ff0452;}.cls-107{fill:#ff0352;}.cls-108{fill:#ff0253;}.cls-109{fill:#ff0153;}.cls-110{fill:#ff0053;}.cls-111{clip-path:url(#clip-path-2);}</style><clipPath id="clip-path"><path class="cls-1" d="M20.4,26.62A11.6,11.6,0,1,0,32,15a11.6,11.6,0,0,0-11.6,11.6"/></clipPath><clipPath id="clip-path-2"><path class="cls-1" d="M11.73,50.59c0,4.95,40.54,4.95,40.54,0,0-5.44-4.59-11.18-11.28-13.44a11.58,11.58,0,0,1-18,0c-6.69,2.26-11.28,8-11.28,13.44M16,21.93a4.27,4.27,0,0,0-3.16,4.3,4.14,4.14,0,0,0,3.82,4.36c1,0,1.56-2.14,1.56-4.35h0a13.73,13.73,0,0,1,27.45-.52c-.09,2.34.42,4.88,1.54,4.88a4.15,4.15,0,0,0,3.83-4.37A4.29,4.29,0,0,0,48,22a16.56,16.56,0,0,0-32,0"/></clipPath></defs><title>资源 38</title><g id="图层_2" data-name="图层 2"><g id="图层_1-2" data-name="图层 1"><rect class="cls-2" width="64" height="64"/><g class="cls-3"><path class="cls-4" d="M20.4,15v0Z"/><rect class="cls-4" x="20.4" y="15.02" width="0.22" height="23.21"/><rect class="cls-5" x="20.61" y="15.02" width="0.22" height="23.21"/><rect class="cls-6" x="20.83" y="15.02" width="0.22" height="23.21"/><rect class="cls-7" x="21.05" y="15.02" width="0.22" height="23.21"/><rect class="cls-8" x="21.26" y="15.02" width="0.22" height="23.21"/><rect class="cls-9" x="21.48" y="15.02" width="0.22" height="23.21"/><rect class="cls-10" x="21.7" y="15.02" width="0.22" height="23.21"/><rect class="cls-11" x="21.91" y="15.02" width="0.22" height="23.21"/><rect class="cls-12" x="22.13" y="15.02" width="0.22" height="23.21"/><rect class="cls-13" x="22.35" y="15.02" width="0.22" height="23.21"/><rect class="cls-14" x="22.57" y="15.02" width="0.22" height="23.21"/><rect class="cls-15" x="22.78" y="15.02" width="0.22" height="23.21"/><rect class="cls-16" x="23" y="15.02" width="0.22" height="23.21"/><rect class="cls-17" x="23.22" y="15.02" width="0.22" height="23.21"/><rect class="cls-18" x="23.43" y="15.02" width="0.22" height="23.21"/><rect class="cls-19" x="23.65" y="15.02" width="0.22" height="23.21"/><rect class="cls-20" x="23.87" y="15.02" width="0.22" height="23.21"/><rect class="cls-21" x="24.08" y="15.02" width="0.22" height="23.21"/><rect class="cls-22" x="24.3" y="15.02" width="0.22" height="23.21"/><rect class="cls-23" x="24.52" y="15.02" width="0.22" height="23.21"/><rect class="cls-24" x="24.73" y="15.02" width="0.22" height="23.21"/><rect class="cls-25" x="24.95" y="15.02" width="0.22" height="23.21"/><rect class="cls-26" x="25.17" y="15.02" width="0.22" height="23.21"/><rect class="cls-27" x="25.38" y="15.02" width="0.22" height="23.21"/><rect class="cls-28" x="25.6" y="15.02" width="0.22" height="23.21"/><rect class="cls-29" x="25.82" y="15.02" width="0.22" height="23.21"/><rect class="cls-30" x="26.03" y="15.02" width="0.22" height="23.21"/><rect class="cls-31" x="26.25" y="15.02" width="0.22" height="23.21"/><rect class="cls-32" x="26.47" y="15.02" width="0.22" height="23.21"/><rect class="cls-33" x="26.69" y="15.02" width="0.22" height="23.21"/><rect class="cls-34" x="26.9" y="15.02" width="0.22" height="23.21"/><rect class="cls-35" x="27.12" y="15.02" width="0.22" height="23.21"/><rect class="cls-36" x="27.34" y="15.02" width="0.22" height="23.21"/><rect class="cls-37" x="27.55" y="15.02" width="0.22" height="23.21"/><rect class="cls-38" x="27.77" y="15.02" width="0.22" height="23.21"/><rect class="cls-39" x="27.99" y="15.02" width="0.22" height="23.21"/><rect class="cls-40" x="28.2" y="15.02" width="0.22" height="23.21"/><rect class="cls-41" x="28.42" y="15.02" width="0.22" height="23.21"/><rect class="cls-42" x="28.64" y="15.02" width="0.22" height="23.21"/><rect class="cls-43" x="28.85" y="15.02" width="0.22" height="23.21"/><rect class="cls-44" x="29.07" y="15.02" width="0.22" height="23.21"/><rect class="cls-45" x="29.29" y="15.02" width="0.22" height="23.21"/><rect class="cls-46" x="29.51" y="15.02" width="0.22" height="23.21"/><rect class="cls-47" x="29.72" y="15.02" width="0.22" height="23.21"/><rect class="cls-48" x="29.94" y="15.02" width="0.22" height="23.21"/><rect class="cls-49" x="30.16" y="15.02" width="0.22" height="23.21"/><rect class="cls-50" x="30.37" y="15.02" width="0.22" height="23.21"/><rect class="cls-51" x="30.59" y="15.02" width="0.22" height="23.21"/><rect class="cls-52" x="30.81" y="15.02" width="0.22" height="23.21"/><rect class="cls-53" x="31.02" y="15.02" width="0.22" height="23.21"/><rect class="cls-54" x="31.24" y="15.02" width="0.22" height="23.21"/><rect class="cls-55" x="31.46" y="15.02" width="0.22" height="23.21"/><rect class="cls-56" x="31.67" y="15.02" width="0.22" height="23.21"/><rect class="cls-57" x="31.89" y="15.02" width="0.22" height="23.21"/><rect class="cls-58" x="32.11" y="15.02" width="0.22" height="23.21"/><rect class="cls-59" x="32.33" y="15.02" width="0.22" height="23.21"/><rect class="cls-60" x="32.54" y="15.02" width="0.22" height="23.21"/><rect class="cls-61" x="32.76" y="15.02" width="0.22" height="23.21"/><rect class="cls-62" x="32.98" y="15.02" width="0.22" height="23.21"/><rect class="cls-63" x="33.19" y="15.02" width="0.22" height="23.21"/><rect class="cls-64" x="33.41" y="15.02" width="0.22" height="23.21"/><rect class="cls-65" x="33.63" y="15.02" width="0.22" height="23.21"/><rect class="cls-66" x="33.84" y="15.02" width="0.22" height="23.21"/><rect class="cls-67" x="34.06" y="15.02" width="0.22" height="23.21"/><rect class="cls-68" x="34.28" y="15.02" width="0.22" height="23.21"/><rect class="cls-69" x="34.49" y="15.02" width="0.22" height="23.21"/><rect class="cls-70" x="34.71" y="15.02" width="0.22" height="23.21"/><rect class="cls-71" x="34.93" y="15.02" width="0.22" height="23.21"/><rect class="cls-72" x="35.15" y="15.02" width="0.22" height="23.21"/><rect class="cls-73" x="35.36" y="15.02" width="0.22" height="23.21"/><rect class="cls-74" x="35.58" y="15.02" width="0.22" height="23.21"/><rect class="cls-75" x="35.8" y="15.02" width="0.22" height="23.21"/><rect class="cls-76" x="36.01" y="15.02" width="0.22" height="23.21"/><rect class="cls-77" x="36.23" y="15.02" width="0.22" height="23.21"/><rect class="cls-78" x="36.45" y="15.02" width="0.22" height="23.21"/><rect class="cls-79" x="36.66" y="15.02" width="0.22" height="23.21"/><rect class="cls-80" x="36.88" y="15.02" width="0.22" height="23.21"/><rect class="cls-81" x="37.1" y="15.02" width="0.22" height="23.21"/><rect class="cls-82" x="37.31" y="15.02" width="0.22" height="23.21"/><rect class="cls-83" x="37.53" y="15.02" width="0.22" height="23.21"/><rect class="cls-84" x="37.75" y="15.02" width="0.22" height="23.21"/><rect class="cls-85" x="37.96" y="15.02" width="0.22" height="23.21"/><rect class="cls-86" x="38.18" y="15.02" width="0.22" height="23.21"/><rect class="cls-87" x="38.4" y="15.02" width="0.22" height="23.21"/><rect class="cls-88" x="38.62" y="15.02" width="0.22" height="23.21"/><rect class="cls-89" x="38.83" y="15.02" width="0.22" height="23.21"/><rect class="cls-90" x="39.05" y="15.02" width="0.22" height="23.21"/><rect class="cls-91" x="39.27" y="15.02" width="0.22" height="23.21"/><rect class="cls-92" x="39.48" y="15.02" width="0.22" height="23.21"/><rect class="cls-93" x="39.7" y="15.02" width="0.22" height="23.21"/><rect class="cls-94" x="39.91" y="15.02" width="0.22" height="23.21"/><rect class="cls-95" x="40.13" y="15.02" width="0.22" height="23.21"/><rect class="cls-96" x="40.35" y="15.02" width="0.22" height="23.21"/><rect class="cls-97" x="40.57" y="15.02" width="0.22" height="23.21"/><rect class="cls-98" x="40.78" y="15.02" width="0.22" height="23.21"/><rect class="cls-99" x="41" y="15.02" width="0.22" height="23.21"/><rect class="cls-100" x="41.22" y="15.02" width="0.22" height="23.21"/><rect class="cls-101" x="41.43" y="15.02" width="0.22" height="23.21"/><rect class="cls-102" x="41.65" y="15.02" width="0.22" height="23.21"/><rect class="cls-103" x="41.87" y="15.02" width="0.22" height="23.21"/><rect class="cls-104" x="42.08" y="15.02" width="0.22" height="23.21"/><rect class="cls-105" x="42.3" y="15.02" width="0.22" height="23.21"/><rect class="cls-106" x="42.52" y="15.02" width="0.22" height="23.21"/><rect class="cls-107" x="42.73" y="15.02" width="0.22" height="23.21"/><rect class="cls-108" x="42.95" y="15.02" width="0.22" height="23.21"/><rect class="cls-109" x="43.17" y="15.02" width="0.22" height="23.21"/><rect class="cls-110" x="43.39" y="15.02" width="0.22" height="23.21"/><path class="cls-110" d="M43.6,38.23v0Z"/></g><g class="cls-111"><rect class="cls-6" x="12.85" y="9.7" width="0.02" height="20.9"/><rect class="cls-7" x="12.86" y="9.7" width="0.38" height="20.9"/><rect class="cls-8" x="13.24" y="9.7" width="0.38" height="20.9"/><rect class="cls-9" x="13.62" y="9.7" width="0.38" height="20.9"/><rect class="cls-10" x="14" y="9.7" width="0.38" height="20.9"/><rect class="cls-11" x="14.38" y="9.7" width="0.38" height="20.9"/><rect class="cls-12" x="14.76" y="9.7" width="0.38" height="20.9"/><rect class="cls-13" x="15.14" y="9.7" width="0.38" height="20.9"/><rect class="cls-14" x="15.52" y="9.7" width="0.38" height="20.9"/><rect class="cls-15" x="15.9" y="9.7" width="0.38" height="20.9"/><rect class="cls-16" x="16.27" y="9.7" width="0.38" height="20.9"/><rect class="cls-17" x="16.65" y="9.7" width="0.38" height="20.9"/><rect class="cls-18" x="17.03" y="9.7" width="0.38" height="20.9"/><rect class="cls-19" x="17.41" y="9.7" width="0.38" height="20.9"/><rect class="cls-20" x="17.79" y="9.7" width="0.38" height="20.9"/><rect class="cls-21" x="18.17" y="9.7" width="0.38" height="20.9"/><rect class="cls-22" x="18.55" y="9.7" width="0.38" height="20.9"/><rect class="cls-23" x="18.93" y="9.7" width="0.38" height="20.9"/><rect class="cls-24" x="19.31" y="9.7" width="0.38" height="20.9"/><rect class="cls-25" x="19.68" y="9.7" width="0.38" height="20.9"/><rect class="cls-26" x="20.06" y="9.7" width="0.38" height="20.9"/><rect class="cls-27" x="20.44" y="9.7" width="0.38" height="20.9"/><rect class="cls-28" x="20.82" y="9.7" width="0.38" height="20.9"/><rect class="cls-29" x="21.2" y="9.7" width="0.38" height="20.9"/><rect class="cls-30" x="21.58" y="9.7" width="0.38" height="20.9"/><rect class="cls-31" x="21.96" y="9.7" width="0.38" height="20.9"/><rect class="cls-32" x="22.34" y="9.7" width="0.38" height="20.9"/><rect class="cls-33" x="22.72" y="9.7" width="0.38" height="20.9"/><rect class="cls-34" x="23.09" y="9.7" width="0.38" height="20.9"/><rect class="cls-35" x="23.47" y="9.7" width="0.38" height="20.9"/><rect class="cls-36" x="23.85" y="9.7" width="0.38" height="20.9"/><rect class="cls-37" x="24.23" y="9.7" width="0.38" height="20.9"/><rect class="cls-38" x="24.61" y="9.7" width="0.38" height="20.9"/><rect class="cls-39" x="24.99" y="9.7" width="0.38" height="20.9"/><rect class="cls-40" x="25.37" y="9.7" width="0.38" height="20.9"/><rect class="cls-41" x="25.75" y="9.7" width="0.38" height="20.9"/><rect class="cls-42" x="26.13" y="9.7" width="0.38" height="20.9"/><rect class="cls-43" x="26.51" y="9.7" width="0.38" height="20.9"/><rect class="cls-44" x="26.88" y="9.7" width="0.38" height="20.9"/><rect class="cls-45" x="27.26" y="9.7" width="0.38" height="20.9"/><rect class="cls-46" x="27.64" y="9.7" width="0.38" height="20.9"/><rect class="cls-47" x="28.02" y="9.7" width="0.38" height="20.9"/><rect class="cls-48" x="28.4" y="9.7" width="0.38" height="20.9"/><rect class="cls-49" x="28.78" y="9.7" width="0.38" height="20.9"/><rect class="cls-50" x="29.16" y="9.7" width="0.38" height="20.9"/><rect class="cls-51" x="29.54" y="9.7" width="0.38" height="20.9"/><rect class="cls-52" x="29.91" y="9.7" width="0.38" height="20.9"/><rect class="cls-53" x="30.29" y="9.7" width="0.38" height="20.9"/><rect class="cls-54" x="30.67" y="9.7" width="0.38" height="20.9"/><rect class="cls-55" x="31.05" y="9.7" width="0.38" height="20.9"/><rect class="cls-56" x="31.43" y="9.7" width="0.38" height="20.9"/><rect class="cls-57" x="31.81" y="9.7" width="0.38" height="20.9"/><rect class="cls-58" x="32.19" y="9.7" width="0.38" height="20.9"/><rect class="cls-59" x="32.57" y="9.7" width="0.38" height="20.9"/><rect class="cls-60" x="32.95" y="9.7" width="0.38" height="20.9"/><rect class="cls-61" x="33.33" y="9.7" width="0.38" height="20.9"/><rect class="cls-62" x="33.71" y="9.7" width="0.38" height="20.9"/><rect class="cls-63" x="34.08" y="9.7" width="0.38" height="20.9"/><rect class="cls-64" x="34.46" y="9.7" width="0.38" height="20.9"/><rect class="cls-65" x="34.84" y="9.7" width="0.38" height="20.9"/><rect class="cls-66" x="35.22" y="9.7" width="0.38" height="20.9"/><rect class="cls-67" x="35.6" y="9.7" width="0.38" height="20.9"/><rect class="cls-68" x="35.98" y="9.7" width="0.38" height="20.9"/><rect class="cls-69" x="36.36" y="9.7" width="0.38" height="20.9"/><rect class="cls-70" x="36.74" y="9.7" width="0.38" height="20.9"/><rect class="cls-71" x="37.12" y="9.7" width="0.38" height="20.9"/><rect class="cls-72" x="37.49" y="9.7" width="0.38" height="20.9"/><rect class="cls-73" x="37.87" y="9.7" width="0.38" height="20.9"/><rect class="cls-74" x="38.25" y="9.7" width="0.38" height="20.9"/><rect class="cls-75" x="38.63" y="9.7" width="0.38" height="20.9"/><rect class="cls-76" x="39.01" y="9.7" width="0.38" height="20.9"/><rect class="cls-77" x="39.39" y="9.7" width="0.38" height="20.9"/><rect class="cls-78" x="39.77" y="9.7" width="0.38" height="20.9"/><rect class="cls-79" x="40.15" y="9.7" width="0.38" height="20.9"/><rect class="cls-80" x="40.53" y="9.7" width="0.38" height="20.9"/><rect class="cls-81" x="40.91" y="9.7" width="0.38" height="20.9"/><rect class="cls-82" x="41.28" y="9.7" width="0.38" height="20.9"/><rect class="cls-83" x="41.66" y="9.7" width="0.38" height="20.9"/><rect class="cls-84" x="42.04" y="9.7" width="0.38" height="20.9"/><rect class="cls-85" x="42.42" y="9.7" width="0.38" height="20.9"/><rect class="cls-86" x="42.8" y="9.7" width="0.38" height="20.9"/><rect class="cls-87" x="43.18" y="9.7" width="0.38" height="20.9"/><rect class="cls-88" x="43.56" y="9.7" width="0.38" height="20.9"/><rect class="cls-89" x="43.94" y="9.7" width="0.38" height="20.9"/><rect class="cls-90" x="44.32" y="9.7" width="0.38" height="20.9"/><rect class="cls-91" x="44.69" y="9.7" width="0.38" height="20.9"/><rect class="cls-92" x="45.07" y="9.7" width="0.38" height="20.9"/><rect class="cls-93" x="45.45" y="9.7" width="0.38" height="20.9"/><rect class="cls-94" x="45.83" y="9.7" width="0.38" height="20.9"/><rect class="cls-95" x="46.21" y="9.7" width="0.38" height="20.9"/><rect class="cls-96" x="46.59" y="9.7" width="0.38" height="20.9"/><rect class="cls-97" x="46.97" y="9.7" width="0.38" height="20.9"/><rect class="cls-98" x="47.35" y="9.7" width="0.38" height="20.9"/><rect class="cls-99" x="47.73" y="9.7" width="0.38" height="20.9"/><rect class="cls-100" x="48.1" y="9.7" width="0.38" height="20.9"/><rect class="cls-101" x="48.48" y="9.7" width="0.38" height="20.9"/><rect class="cls-102" x="48.86" y="9.7" width="0.38" height="20.9"/><rect class="cls-103" x="49.24" y="9.7" width="0.38" height="20.9"/><rect class="cls-104" x="49.62" y="9.7" width="0.38" height="20.9"/><rect class="cls-105" x="50" y="9.7" width="0.38" height="20.9"/><rect class="cls-106" x="50.38" y="9.7" width="0.38" height="20.9"/><rect class="cls-107" x="50.76" y="9.7" width="0.33" height="20.9"/><path class="cls-4" d="M11.73,37.15v0Z"/><rect class="cls-4" x="11.73" y="37.15" width="0.38" height="18.4"/><rect class="cls-5" x="12.11" y="37.15" width="0.38" height="18.4"/><rect class="cls-6" x="12.49" y="37.15" width="0.38" height="18.4"/><rect class="cls-7" x="12.86" y="37.15" width="0.38" height="18.4"/><rect class="cls-8" x="13.24" y="37.15" width="0.38" height="18.4"/><rect class="cls-9" x="13.62" y="37.15" width="0.38" height="18.4"/><rect class="cls-10" x="14" y="37.15" width="0.38" height="18.4"/><rect class="cls-11" x="14.38" y="37.15" width="0.38" height="18.4"/><rect class="cls-12" x="14.76" y="37.15" width="0.38" height="18.4"/><rect class="cls-13" x="15.14" y="37.15" width="0.38" height="18.4"/><rect class="cls-14" x="15.52" y="37.15" width="0.38" height="18.4"/><rect class="cls-15" x="15.9" y="37.15" width="0.38" height="18.4"/><rect class="cls-16" x="16.27" y="37.15" width="0.38" height="18.4"/><rect class="cls-17" x="16.65" y="37.15" width="0.38" height="18.4"/><rect class="cls-18" x="17.03" y="37.15" width="0.38" height="18.4"/><rect class="cls-19" x="17.41" y="37.15" width="0.38" height="18.4"/><rect class="cls-20" x="17.79" y="37.15" width="0.38" height="18.4"/><rect class="cls-21" x="18.17" y="37.15" width="0.38" height="18.4"/><rect class="cls-22" x="18.55" y="37.15" width="0.38" height="18.4"/><rect class="cls-23" x="18.93" y="37.15" width="0.38" height="18.4"/><rect class="cls-24" x="19.31" y="37.15" width="0.38" height="18.4"/><rect class="cls-25" x="19.68" y="37.15" width="0.38" height="18.4"/><rect class="cls-26" x="20.06" y="37.15" width="0.38" height="18.4"/><rect class="cls-27" x="20.44" y="37.15" width="0.38" height="18.4"/><rect class="cls-28" x="20.82" y="37.15" width="0.38" height="18.4"/><rect class="cls-29" x="21.2" y="37.15" width="0.38" height="18.4"/><rect class="cls-30" x="21.58" y="37.15" width="0.38" height="18.4"/><rect class="cls-31" x="21.96" y="37.15" width="0.38" height="18.4"/><rect class="cls-32" x="22.34" y="37.15" width="0.38" height="18.4"/><rect class="cls-33" x="22.72" y="37.15" width="0.38" height="18.4"/><rect class="cls-34" x="23.09" y="37.15" width="0.38" height="18.4"/><rect class="cls-35" x="23.47" y="37.15" width="0.38" height="18.4"/><rect class="cls-36" x="23.85" y="37.15" width="0.38" height="18.4"/><rect class="cls-37" x="24.23" y="37.15" width="0.38" height="18.4"/><rect class="cls-38" x="24.61" y="37.15" width="0.38" height="18.4"/><rect class="cls-39" x="24.99" y="37.15" width="0.38" height="18.4"/><rect class="cls-40" x="25.37" y="37.15" width="0.38" height="18.4"/><rect class="cls-41" x="25.75" y="37.15" width="0.38" height="18.4"/><rect class="cls-42" x="26.13" y="37.15" width="0.38" height="18.4"/><rect class="cls-43" x="26.51" y="37.15" width="0.38" height="18.4"/><rect class="cls-44" x="26.88" y="37.15" width="0.38" height="18.4"/><rect class="cls-45" x="27.26" y="37.15" width="0.38" height="18.4"/><rect class="cls-46" x="27.64" y="37.15" width="0.38" height="18.4"/><rect class="cls-47" x="28.02" y="37.15" width="0.38" height="18.4"/><rect class="cls-48" x="28.4" y="37.15" width="0.38" height="18.4"/><rect class="cls-49" x="28.78" y="37.15" width="0.38" height="18.4"/><rect class="cls-50" x="29.16" y="37.15" width="0.38" height="18.4"/><rect class="cls-51" x="29.54" y="37.15" width="0.38" height="18.4"/><rect class="cls-52" x="29.91" y="37.15" width="0.38" height="18.4"/><rect class="cls-53" x="30.29" y="37.15" width="0.38" height="18.4"/><rect class="cls-54" x="30.67" y="37.15" width="0.38" height="18.4"/><rect class="cls-55" x="31.05" y="37.15" width="0.38" height="18.4"/><rect class="cls-56" x="31.43" y="37.15" width="0.38" height="18.4"/><rect class="cls-57" x="31.81" y="37.15" width="0.38" height="18.4"/><rect class="cls-58" x="32.19" y="37.15" width="0.38" height="18.4"/><rect class="cls-59" x="32.57" y="37.15" width="0.38" height="18.4"/><rect class="cls-60" x="32.95" y="37.15" width="0.38" height="18.4"/><rect class="cls-61" x="33.33" y="37.15" width="0.38" height="18.4"/><rect class="cls-62" x="33.71" y="37.15" width="0.38" height="18.4"/><rect class="cls-63" x="34.08" y="37.15" width="0.38" height="18.4"/><rect class="cls-64" x="34.46" y="37.15" width="0.38" height="18.4"/><rect class="cls-65" x="34.84" y="37.15" width="0.38" height="18.4"/><rect class="cls-66" x="35.22" y="37.15" width="0.38" height="18.4"/><rect class="cls-67" x="35.6" y="37.15" width="0.38" height="18.4"/><rect class="cls-68" x="35.98" y="37.15" width="0.38" height="18.4"/><rect class="cls-69" x="36.36" y="37.15" width="0.38" height="18.4"/><rect class="cls-70" x="36.74" y="37.15" width="0.38" height="18.4"/><rect class="cls-71" x="37.12" y="37.15" width="0.38" height="18.4"/><rect class="cls-72" x="37.49" y="37.15" width="0.38" height="18.4"/><rect class="cls-73" x="37.87" y="37.15" width="0.38" height="18.4"/><rect class="cls-74" x="38.25" y="37.15" width="0.38" height="18.4"/><rect class="cls-75" x="38.63" y="37.15" width="0.38" height="18.4"/><rect class="cls-76" x="39.01" y="37.15" width="0.38" height="18.4"/><rect class="cls-77" x="39.39" y="37.15" width="0.38" height="18.4"/><rect class="cls-78" x="39.77" y="37.15" width="0.38" height="18.4"/><rect class="cls-79" x="40.15" y="37.15" width="0.38" height="18.4"/><rect class="cls-80" x="40.53" y="37.15" width="0.38" height="18.4"/><rect class="cls-81" x="40.91" y="37.15" width="0.38" height="18.4"/><rect class="cls-82" x="41.28" y="37.15" width="0.38" height="18.4"/><rect class="cls-83" x="41.66" y="37.15" width="0.38" height="18.4"/><rect class="cls-84" x="42.04" y="37.15" width="0.38" height="18.4"/><rect class="cls-85" x="42.42" y="37.15" width="0.38" height="18.4"/><rect class="cls-86" x="42.8" y="37.15" width="0.38" height="18.4"/><rect class="cls-87" x="43.18" y="37.15" width="0.38" height="18.4"/><rect class="cls-88" x="43.56" y="37.15" width="0.38" height="18.4"/><rect class="cls-89" x="43.94" y="37.15" width="0.38" height="18.4"/><rect class="cls-90" x="44.32" y="37.15" width="0.38" height="18.4"/><rect class="cls-91" x="44.69" y="37.15" width="0.38" height="18.4"/><rect class="cls-92" x="45.07" y="37.15" width="0.38" height="18.4"/><rect class="cls-93" x="45.45" y="37.15" width="0.38" height="18.4"/><rect class="cls-94" x="45.83" y="37.15" width="0.38" height="18.4"/><rect class="cls-95" x="46.21" y="37.15" width="0.38" height="18.4"/><rect class="cls-96" x="46.59" y="37.15" width="0.38" height="18.4"/><rect class="cls-97" x="46.97" y="37.15" width="0.38" height="18.4"/><rect class="cls-98" x="47.35" y="37.15" width="0.38" height="18.4"/><rect class="cls-99" x="47.73" y="37.15" width="0.38" height="18.4"/><rect class="cls-100" x="48.1" y="37.15" width="0.38" height="18.4"/><rect class="cls-101" x="48.48" y="37.15" width="0.38" height="18.4"/><rect class="cls-102" x="48.86" y="37.15" width="0.38" height="18.4"/><rect class="cls-103" x="49.24" y="37.15" width="0.38" height="18.4"/><rect class="cls-104" x="49.62" y="37.15" width="0.38" height="18.4"/><rect class="cls-105" x="50" y="37.15" width="0.38" height="18.4"/><rect class="cls-106" x="50.38" y="37.15" width="0.38" height="18.4"/><rect class="cls-107" x="50.76" y="37.15" width="0.38" height="18.4"/><rect class="cls-108" x="51.14" y="37.15" width="0.38" height="18.4"/><rect class="cls-109" x="51.52" y="37.15" width="0.38" height="18.4"/><rect class="cls-110" x="51.89" y="37.15" width="0.38" height="18.4"/><path class="cls-110" d="M52.27,55.54v0Z"/></g></g></g></svg>