<?xml version="1.0" standalone="no"?><!DOCTYPE svg PUBLIC "-//W3C//DTD SVG 1.1//EN" "http://www.w3.org/Graphics/SVG/1.1/DTD/svg11.dtd"><svg t="1583721247599" class="icon" viewBox="0 0 1024 1024" version="1.1" xmlns="http://www.w3.org/2000/svg" p-id="2263" width="32" height="32" xmlns:xlink="http://www.w3.org/1999/xlink"><defs><style type="text/css"></style></defs><path d="M512 1024A512 512 0 1 0 0 512a512 512 0 0 0 512 512z m0-85.3504A426.6496 426.6496 0 1 1 938.6496 512 426.6496 426.6496 0 0 1 512 938.6496z" p-id="2264" fill="#ff0c52"></path><path d="M454.6048 610.7136l271.5136-271.5648a42.6496 42.6496 0 0 1 60.3648 60.416l-301.6704 301.6704a42.6496 42.6496 0 0 1-60.3648 0L243.456 520.192a42.6496 42.6496 0 1 1 60.3648-60.3648z" p-id="2265" fill="#ff0c52"></path></svg>