<svg xmlns="http://www.w3.org/2000/svg" viewBox="0 0 32 32"><defs><style>.cls-1{fill:none;opacity:0.47;}.cls-2{fill:#b3b3b3;}</style></defs><title>资源 19</title><g id="图层_2" data-name="图层 2"><g id="图层_2-2" data-name="图层 2"><rect class="cls-1" width="32" height="32"/><path class="cls-2" d="M29.73,20.3a1,1,0,0,0,.94-.95V11.76a3.58,3.58,0,0,0-3.58-3.58,3.61,3.61,0,0,1-3.51-2.84A3.25,3.25,0,0,0,20.4,2.77H11.6a3.27,3.27,0,0,0-2,.72A3.31,3.31,0,0,0,8.42,5.34a3.6,3.6,0,0,1-3.5,2.84,3.59,3.59,0,0,0-3.59,3.58V25.64a3.59,3.59,0,0,0,3.59,3.59H27.08a3.6,3.6,0,0,0,3.59-3.58V24.54a.95.95,0,0,0-1.89,0v1.11a1.7,1.7,0,0,1-1.7,1.7H4.92a1.7,1.7,0,0,1-1.7-1.7V11.77a1.7,1.7,0,0,1,1.7-1.7,5.51,5.51,0,0,0,5.34-4.33A1.38,1.38,0,0,1,11.6,4.66h8.8a1.37,1.37,0,0,1,1.34,1.08,5.48,5.48,0,0,0,5.35,4.32,1.7,1.7,0,0,1,1.7,1.7v7.59A1,1,0,0,0,29.73,20.3Z"/><path class="cls-2" d="M16,11.16a6.7,6.7,0,1,0,6.69,6.69A6.7,6.7,0,0,0,16,11.16Zm0,11.5a4.81,4.81,0,1,1,4.81-4.81A4.83,4.83,0,0,1,16,22.66Z"/></g></g></svg>