<svg xmlns="http://www.w3.org/2000/svg" viewBox="0 0 48 48"><defs><style>.cls-1{fill:gray;}.cls-2{fill:#fff;}</style></defs><title>资源 16</title><g id="图层_2" data-name="图层 2"><g id="图层_2-2" data-name="图层 2"><rect class="cls-1" width="48" height="48" rx="24" ry="24"/><path class="cls-2" d="M36.81,25.72A1.25,1.25,0,0,0,35.59,27v8a1.81,1.81,0,0,1-1.8,1.79H13.22A1.8,1.8,0,0,1,11.43,35V16.09a1.81,1.81,0,0,1,1.79-1.8h9.06a1.22,1.22,0,1,0,0-2.44H13.22A4.21,4.21,0,0,0,9,16.09V35a4.32,4.32,0,0,0,4.24,4.24H33.79A4.27,4.27,0,0,0,38,35V27A1.26,1.26,0,0,0,36.81,25.72Z"/><path class="cls-2" d="M38.85,9.69a1.27,1.27,0,0,0-1.14-.78h-8.9a1.23,1.23,0,0,0,0,2.45h6.13L19.43,26.87a1.21,1.21,0,1,0,1.71,1.71L36.57,13.15v6a1.23,1.23,0,1,0,2.45,0v-8.9A1.26,1.26,0,0,0,38.85,9.69Z"/></g></g></svg>