<?xml version="1.0" encoding="utf-8"?>
<!-- Generator: Adobe Illustrator 22.1.0, SVG Export Plug-In . SVG Version: 6.00 Build 0)  -->
<svg version="1.1" id="图层_1" xmlns="http://www.w3.org/2000/svg" xmlns:xlink="http://www.w3.org/1999/xlink" x="0px" y="0px"
	 viewBox="0 0 84 84" style="enable-background:new 0 0 84 84;" xml:space="preserve">
<style type="text/css">
	.st0{fill:#FFBE0E;}
	.st1{clip-path:url(#SVGID_2_);}
	.st2{opacity:0.2;}
	.st3{clip-path:url(#SVGID_4_);}
	.st4{fill:#FFFFFF;}
	.st5{clip-path:url(#SVGID_6_);}
</style>
<title>资源 54</title>
<g>
	<g>
		<path class="st0" d="M12,0h60c6.6,0,12,5.4,12,12v60c0,6.6-5.4,12-12,12H12C5.4,84,0,78.6,0,72V12C0,5.4,5.4,0,12,0z"/>
		<g>
			<defs>
				<path id="SVGID_1_" d="M12,0h60c6.6,0,12,5.4,12,12v60c0,6.6-5.4,12-12,12H12C5.4,84,0,78.6,0,72V12C0,5.4,5.4,0,12,0z"/>
			</defs>
			<clipPath id="SVGID_2_">
				<use xlink:href="#SVGID_1_"  style="overflow:visible;"/>
			</clipPath>
			<g id="图层_2_1_" class="st1">
				<g id="图层_1-2">
					<g class="st2">
						<defs>
							<rect id="SVGID_3_" x="-0.5" y="26.9" class="st2" width="65" height="57.2"/>
						</defs>
						<clipPath id="SVGID_4_">
							<use xlink:href="#SVGID_3_"  style="overflow:visible;"/>
						</clipPath>
						<g class="st3">
							<path class="st4" d="M64.5,84H12.4C5.3,84-0.5,78.2-0.5,71.1c0,0,0,0,0,0V26.9c0.9,0,1.7,0,2.6,0c1,0,2,0,3.1,0.1
								c29.9,1.5,54.6,23.9,59,53.5C64.3,81.6,64.4,82.8,64.5,84"/>
						</g>
					</g>
					<g>
						<g class="st2">
							<defs>
								<rect id="SVGID_5_" x="3.7" y="-1.5" class="st2" width="81.4" height="81.8"/>
							</defs>
							<clipPath id="SVGID_6_">
								<use xlink:href="#SVGID_5_"  style="overflow:visible;"/>
							</clipPath>
							<g class="st5">
								<path class="st4" d="M84.1,11.1l1,63.7c0,1.2-0.2,2.3-0.6,3.4c-4.9,1.2-9.9,1.9-15,2c-1.6,0-3.3,0-4.9-0.1
									C28.8,78,1.6,47.2,3.8,11.5C4,8,4.5,4.6,5.2,1.2C7.2,0,9.4-0.6,11.6-0.7L71-1.5C78.1-1.7,84,4,84.1,11.1
									C84.1,11.1,84.1,11.1,84.1,11.1"/>
							</g>
						</g>
					</g>
					<path class="st4" d="M61.7,27.8h-9.8v-6.3c0-1.8-1.5-3.2-3.3-3.1H35.4c-1.8,0-3.2,1.4-3.3,3.1v6.3h-9.8
						c-3.5-0.1-6.5,2.8-6.6,6.3v25.2c0.1,3.5,3,6.4,6.6,6.3h39.4c3.5,0.1,6.5-2.8,6.6-6.3V34.1C68.2,30.6,65.2,27.8,61.7,27.8
						 M35.4,21.5h13.1v6.3H35.4V21.5z M55.1,49.9h-9.8v9.5h-6.6v-9.5h-9.8v-6.3h9.8v-9.5h6.6v9.5h9.8V49.9z"/>
				</g>
			</g>
		</g>
	</g>
</g>
</svg>
